<svg xmlns="http://www.w3.org/2000/svg" version="1.1" xmlns:xlink="http://www.w3.org/1999/xlink" xmlns:svgjs="http://svgjs.dev/svgjs" viewBox="0 0 1422 800"><defs><linearGradient x1="50%" y1="0%" x2="50%" y2="100%" id="ccchaos-grad"><stop stop-color="hsl(206, 75%, 49%)" stop-opacity="1" offset="0%"></stop><stop stop-color="hsl(331, 90%, 56%)" stop-opacity="1" offset="100%"></stop></linearGradient></defs><g stroke-width="2" stroke="url(#ccchaos-grad)" fill="none" stroke-linecap="round"><path d="M684.9 -338.4C690.89 -338.23 696.84 -338.14 702.74 -338.13 711.56 -338.35 728.98 -339.03 737.57 -339.29 746.13 -339.4 763.09 -338.61 771.51 -337.61 779.94 -336.2 796.82 -332.3 805.31 -329.95 811.03 -328.33 816.78 -326.67 822.58 -324.98 828.44 -323.35 834.37 -321.74 840.38 -320.16 846.48 -318.67 852.67 -317.22 858.98 -315.79 865.4 -314.45 871.96 -313.11 878.66 -311.75 885.49 -310.43 892.49 -309.04 899.67 -307.58 906.99 -306.1 914.5 -304.5 922.21 -302.79 930.07 -301.01 938.13 -299.1 946.4 -297.06 954.8 -294.97 963.41 -292.75 972.2 -290.43 981.1 -288.08 990.17 -285.64 999.38 -283.14 1008.66 -280.66 1018.04 -278.13 1027.49 -275.56 1036.93 -273.03 1046.38 -270.48 1055.8 -267.9 1065.1 -265.36 1074.29 -262.78 1083.32 -260.16 1092.11 -257.55 1100.65 -254.87 1108.89 -252.12 1116.75 -249.34 1124.21 -246.47 1131.21 -243.49 1137.72 -240.46 1143.69 -237.31 1149.06 -234.05 1155.92 -229.03 1165.37 -218.46 1167.89 -212.99 1167.95 -202.04 1161.31 -186.02 1157.66 -180.92 1151.2 -171.16 1147.28 -156.68 1149.33 -151.69 1152.02 -148.28 1155.76 -144.75 1160.59 -141.07 1166.58 -137.29 1173.71 -133.34 1181.96 -129.22 1191.29 -124.96 1201.64 -120.52 1212.92 -115.89 1224.96 -111.13 1237.67 -106.2 1250.89 -101.12 1264.36 -95.93 1277.94 -90.61 1291.42 -85.19 1304.52 -79.71 1317.07 -74.17 1328.83 -68.58 1339.58 -63 1349.14 -57.42 1357.32 -51.85 1366.52 -43.63 1373.83 -27.7 1371.84 -20.04 1368.42 -15.11 1363.52 -10.29 1357.32 -5.56 1350.2 -0.99 1342.27 3.48 1333.84 7.87 1325.37 12.13 1317.05 16.33 1309.22 20.47 1299.47 26.52 1289.47 38.47 1290.58 44.45 1294.21 48.44 1299.99 52.5 1307.89 56.62 1317.81 60.78 1329.53 65.03 1342.81 69.39 1357.31 73.81 1372.68 78.36 1388.5 83.03 1404.32 87.79 1419.7 92.68 1434.2 97.7 1447.36 102.83 1458.81 108.09 1468.17 113.49 1477.43 121.79 1478.69 139.17 1470.78 148.21 1462.53 154.36 1452.37 160.6 1440.71 166.92 1428.19 173.32 1415.18 179.79 1402.26 186.33 1390.12 192.92 1379.15 199.57 1369.89 206.25 1362.88 212.99 1358.38 219.75 1356.66 226.54 1357.95 233.37 1362.23 240.2 1369.41 247.05 1379.33 253.92 1391.62 260.79 1405.86 267.66 1421.54 274.54 1438.06 281.42 1454.78 288.27 1471.06 295.14 1486.22 302 1499.65 308.82 1510.83 315.66 1519.25 322.47 1524.56 329.25 1526.59 336.04 1525.18 342.8 1520.39 349.53 1512.51 356.26 1501.8 362.95 1488.7 369.6 1473.94 376.26 1458.04 382.88 1441.71 389.45 1425.83 396.03 1410.98 402.56 1397.87 409.04 1387.21 415.52 1379.42 421.91 1374.83 428.21 1373.68 434.51 1375.93 440.71 1381.42 446.81 1389.99 452.9 1401.11 458.89 1414.25 464.78 1428.94 470.65 1444.36 476.42 1459.83 482.07 1474.78 487.71 1488.41 493.23 1500.13 498.63 1512.83 506.65 1518.38 522.05 1510.74 529.42 1501.71 534.28 1490.13 539.02 1476.44 543.64 1461.18 548.25 1444.93 552.75 1428.29 557.14 1411.87 561.53 1396.27 565.83 1382.01 570.05 1369.6 574.29 1359.42 578.46 1351.76 582.59 1345.8 588.84 1351.69 601.43 1362.45 607.88 1372.12 612.33 1383.03 616.87 1394.69 621.52 1406.73 626.36 1418.52 631.36 1429.55 636.53 1439.52 641.94 1447.88 647.56 1454.3 653.43 1458.62 659.57 1460.55 665.97 1459.99 672.67 1456.98 679.65 1451.52 686.93 1443.76 694.51 1433.94 702.37 1422.29 710.52 1409.15 718.95 1394.87 727.61 1379.83 736.5 1364.44 745.6 1349.06 754.82 1334.1 764.18 1319.91 773.62 1306.78 783.05 1295.03 792.44 1284.85 801.75 1276.43 810.87 1269.88 819.77 1265.23 828.37 1262.54 836.6 1261.7 844.39 1262.57 851.69 1265.11 858.43 1269.02 864.56 1274.05 870.02 1280.1 874.81 1286.76 878.87 1293.75 882.16 1300.94 884.76 1307.9 886.61 1314.38 887.72 1328.94 883.8 1314.79 876.61 1302.79 875.97 1293.3 876.51 1282.86 877.84 1271.64 880.08 1259.77 883.36 1247.45 887.68 1234.86 893.08 1222.11 899.58 1209.42 907.13 1196.95 915.67 1184.76 925.12 1173.05 935.34 1161.93 946.2 1151.44 957.49 1141.7 969.04 1132.76 980.63 1124.66 992.02 1117.42 1002.99 1111.04 1013.32 1105.54 1022.77 1100.87 1031.16 1096.98 1038.3 1089.05 1038.2 1090.41 1012.44 1090.5 1006.03 1090.02 1002.79 1086.74 1006.98 1083.8 1014.97 1081.36 1022.66 1078.45 1031.92 1075.09 1042.51 1071.38 1054.15 1067.24 1066.49 1062.67 1079.12 1057.78 1091.65 1052.5 1103.65 1046.86 1114.7 1040.94 1124.44 1034.7 1132.52 1028.19 1138.63 1021.44 1142.65 1014.47 1144.41 1007.3 1143.88 999.95 1141.22 992.45 1136.54 984.83 1130.1 977.08 1122.37 969.26 1113.65 961.39 1104.43 953.44 1095.32 945.46 1086.72 937.49 1079.12 929.49 1073.09 921.5 1068.89 913.56 1066.84 905.61 1067.22 897.72 1070.03 889.89 1075.25 882.08 1082.76 874.34 1092.23 866.69 1103.3 859.06 1115.51 851.52 1128.29 844.07 1141.07 836.64 1153.28 829.31 1164.32 822.08 1173.65 814.87 1180.88 807.75 1185.61 800.72 1187.6 793.72 1186.84 786.8 1183.33 779.96 1177.24 773.15 1169.01 766.41 1159.01 759.75 1147.78 753.11 1136.06 746.54 1124.38 740.03 1113.42 733.54 1103.9 727.11 1096.26 720.74 1090.96 714.37 1088.41 708.06 1088.68 701.81 1091.78 695.56 1097.64 689.39 1105.81 683.31 1115.81 677.23 1127.19 671.22 1139.18 665.3 1151.12 659.37 1162.44 653.51 1172.41 647.72 1180.48 639.06 1187.88 622.05 1184.71 613.69 1174.42 608.12 1164.69 602.6 1153.34 597.14 1140.95 591.65 1128.14 586.21 1115.49 580.81 1103.59 575.38 1093.01 570 1084.19 564.65 1077.48 556.57 1072.28 540.49 1077.75 532.46 1087.3 527.05 1095.68 521.65 1104.89 516.25 1114.41 510.78 1123.83 505.32 1132.51 499.84 1139.98 491.51 1147.95 474.67 1149.93 466.14 1143.45 460.37 1136.29 454.58 1127.27 448.77 1116.7 442.9 1105.01 437 1092.58 431.09 1079.86 425.13 1067.31 419.15 1055.33 413.18 1044.32 407.17 1034.61 401.17 1026.47 395.19 1020.08 389.19 1015.61 383.23 1013.06 377.31 1012.37 371.4 1013.52 365.55 1016.24 359.76 1020.27 354.02 1025.46 348.36 1031.35 342.78 1037.61 337.27 1044.02 331.86 1050.1 326.55 1055.54 318.76 1061.88 303.82 1065.72 296.67 1062.48 291.99 1058.18 287.4 1052.28 282.88 1044.93 278.39 1036.3 273.95 1026.56 269.55 1015.95 265.13 1004.7 260.73 993.06 256.32 981.3 251.85 969.63 247.36 958.32 242.81 947.56 238.18 937.55 233.48 928.44 228.72 920.35 223.84 913.38 218.9 907.58 213.89 902.94 206.2 898.35 190.58 895.79 182.77 897.15 175.04 899.9 160.32 906.62 153.51 909.65 141.78 911.99 127.94 905.61 124.6 899.61 122.61 894.56 120.81 888.71 119.16 882.14 117.54 874.91 115.96 867.08 114.37 858.73 112.64 849.93 110.78 840.77 108.74 831.36 106.4 821.72 103.79 811.98 100.85 802.22 97.52 792.47 93.83 782.83 89.78 773.36 85.33 764.08 80.55 755.08 75.48 746.38 70.14 737.99 64.63 729.96 59.02 722.31 53.35 715.02 47.76 708.13 42.35 701.6 37.15 695.46 32.31 689.67 27.91 684.21 22.3 676.69 15.01 663.39 13.45 657.43 14.61 646.77 20.18 631.67 21.95 626.63 22.7 621.56 20.48 610.84 17.17 605.13 14 601.24 10.18 597.19 5.81 592.99 0.91 588.74 -4.31 584.33 -9.73 579.76 -15.25 575.13 -20.63 570.35 -25.71 565.42 -30.38 560.43 -34.44 555.3 -37.75 550.03 -41.09 542 -41.71 525.24 -39.11 516.56 -36.43 510.71 -33.15 504.75 -29.44 498.71 -25.56 492.65 -21.63 486.51 -17.85 480.29 -14.48 474.05 -11.63 467.75 -9.43 461.38 -8.1 455 -7.62 448.56 -8.06 442.06 -9.46 435.56 -11.71 429.01 -14.72 422.4 -18.42 415.79 -22.55 409.17 -26.91 402.53 -31.4 395.9 -35.71 389.26 -39.63 382.6 -43.08 375.94 -45.8 369.28 -47.65 362.59 -48.63 355.91 -48.6 349.22 -47.55 342.5 -45.58 335.79 -42.69 329.06 -38.98 322.3 -34.65 315.55 -29.8 308.77 -24.6 301.97 -19.29 295.17 -14.01 288.34 -8.92 281.49 -4.25 274.64 -0.08 267.76 3.46 260.86 6.26 253.95 8.32 247.03 9.61 240.09 10.08 233.15 9.87 226.19 9.04 219.23 7.64 212.27 5.85 205.31 3.82 198.36 1.63 191.42 -0.5 184.5 -2.43 177.6 -4.09 170.73 -5.29 163.9 -5.9 157.11 -5.95 150.38 -5.28 143.7 -3.86 137.09 -1.76 130.55 1.06 124.1 4.58 117.74 8.66 111.48 13.28 105.33 18.35 99.29 23.71 93.37 29.29 87.58 34.98 81.93 40.62 76.4 46.16 71.02 51.5 65.79 56.52 60.69 61.18 55.73 65.43 50.94 70.87 43.97 78.79 30.88 81.43 24.7 83.25 18.69 85.82 7.04 87.02 1.32 88.46 -4.47 92.92 -16.34 96.19 -22.49 100.31 -28.92 110.95 -42.49 117.36 -49.63 121.96 -54.58 126.82 -59.61 131.87 -64.72 137.04 -69.94 142.33 -75.21 147.68 -80.52 153.03 -85.88 158.38 -91.24 163.68 -96.57 168.89 -101.89 174 -107.14 179.01 -112.3 183.86 -117.39 188.59 -122.35 193.19 -127.17 197.62 -131.87 201.95 -136.4 206.16 -140.76 212.26 -147.02 224.06 -158.49 229.88 -163.76 235.71 -168.8 247.75 -178.39 254.04 -183.06 260.54 -187.77 274.3 -197.36 281.55 -202.28 286.5 -205.66 291.56 -209.06 296.72 -212.48 301.92 -215.96 307.21 -219.44 312.56 -222.89 317.94 -226.37 323.36 -229.8 328.81 -233.16 334.25 -236.5 339.71 -239.76 345.17 -242.91 350.58 -246.02 355.98 -249.02 361.37 -251.91 366.69 -254.76 371.98 -257.51 377.25 -260.17 385.02 -264.09 400.29 -271.63 407.8 -275.33 415.19 -279.05 429.82 -286.43 437.09 -290.05 444.32 -293.63 458.83 -300.32 466.15 -303.34 473.5 -306.13 488.44 -310.91 496.05 -312.93 503.75 -314.81 519.47 -318.29 527.51 -320.03 535.64 -321.91 552.23 -326.04 560.67 -328.26 566.35 -329.82 572.07 -331.36 577.83 -332.85 583.62 -334.34 589.44 -335.72 595.3 -336.96 601.18 -338.11 607.08 -339.06 613.01 -339.81 618.96 -340.42 624.92 -340.8 630.89 -340.97 636.88 -341.02 642.87 -340.89 648.87 -340.61 654.88 -340.29 660.89 -339.89 666.89 -339.44 672.9 -339.06 678.9 -338.71 684.89 -338.4" stroke-dasharray="3 8" transform="rotate(0, 711, 400)" opacity="0.42"></path><path d="M687.56 -310.89C693.36 -310.79 699.18 -310.71 705.03 -310.63 710.89 -310.64 716.77 -310.65 722.68 -310.64 728.6 -310.67 734.55 -310.65 740.54 -310.56 746.55 -310.46 752.6 -310.24 758.7 -309.9 764.82 -309.5 771 -308.95 777.24 -308.26 783.5 -307.49 789.84 -306.57 796.26 -305.52 802.71 -304.42 809.25 -303.2 815.87 -301.89 822.55 -300.57 829.33 -299.18 836.21 -297.75 843.14 -296.34 850.19 -294.91 857.35 -293.46 864.58 -292.05 871.92 -290.63 879.38 -289.19 886.91 -287.79 894.55 -286.35 902.31 -284.87 910.12 -283.41 918.05 -281.88 926.07 -280.27 942.22 -277.01 958.68 -273.36 975.32 -269.33 991.79 -265.22 1008.15 -260.8 1024.17 -256.17 1039.53 -251.64 1054.09 -247.02 1067.56 -242.3 1079.75 -237.72 1090.39 -232.95 1099.21 -227.91 1106.33 -222.73 1111.4 -217.08 1114.36 -210.92 1115.79 -204.45 1115.44 -197.49 1113.61 -190.12 1111.31 -182.68 1108.54 -175.09 1105.96 -167.51 1104.76 -160.27 1105.17 -153.24 1107.92 -146.47 1113.87 -140.16 1123.17 -134 1136.14 -127.9 1152.75 -121.92 1172.68 -115.66 1195.36 -108.99 1219.72 -101.95 1244.78 -94.22 1269.21 -85.76 1291.48 -76.71 1310.35 -66.94 1324.57 -56.54 1333.39 -45.74 1336.24 -34.56 1333.1 -23.16 1325.05 -11.8 1312.85 -0.52 1298.13 10.55 1283.5 21.21 1270.57 31.52 1261.51 41.44 1258.54 50.8 1262.48 59.81 1273.96 68.53 1292.66 76.8 1317.27 84.94 1345.75 93.04 1375.35 100.92 1403.16 108.95 1426.19 117.2 1442.02 125.47 1448.87 134.08 1446 143.07 1434.45 152.24 1415.63 161.83 1392.4 171.82 1380.43 176.9 1368.73 182.09 1357.77 187.36 1348.14 192.7 1340.13 198.12 1334.12 203.63 1330.49 209.19 1329.37 214.82 1330.89 220.53 1335.13 226.28 1341.96 232.1 1351.21 237.97 1362.63 243.88 1375.84 249.83 1390.4 255.82 1405.81 261.85 1421.53 267.91 1436.98 273.99 1451.63 280.1 1464.9 286.23 1476.28 292.36 1485.39 298.52 1491.84 304.68 1495.35 310.84 1495.86 317.01 1493.28 323.18 1487.7 329.33 1479.44 335.49 1468.74 341.64 1456.02 347.76 1441.92 353.88 1426.91 359.99 1411.62 366.06 1396.8 372.13 1382.97 378.17 1370.71 384.17 1360.66 390.17 1353.18 396.1 1348.57 401.95 1347.05 407.81 1348.58 413.58 1353.08 419.28 1360.42 424.97 1370.16 430.59 1381.87 436.13 1395.17 441.67 1409.37 447.14 1423.86 452.54 1438.18 457.94 1451.6 463.27 1463.59 468.54 1473.76 473.82 1481.59 479.04 1486.78 484.21 1489.2 489.4 1488.67 494.54 1485.21 499.66 1478.99 504.8 1470.18 509.92 1459.11 515.04 1446.2 520.2 1431.88 525.36 1416.65 530.55 1401.03 535.8 1385.55 541.09 1370.72 546.42 1357.01 551.85 1344.84 557.35 1334.56 562.94 1326.49 568.65 1320.79 574.46 1317.55 580.39 1318.69 592.68 1328.8 605.57 1345.69 619.16 1366.94 633.4 1388.66 648.38 1407.53 664.1 1421.22 680.31 1427.17 697.06 1424.42 714.19 1413.25 731.28 1394.43 748.24 1369.89 764.72 1341.94 780.29 1313.22 794.68 1286.26 807.47 1263.12 818.46 1245.49 827.31 1234.21 833.79 1229.65 838.22 1231.14 840.4 1237.51 840.56 1247.78 839.66 1259.73 837.82 1271.55 835.79 1285.89 835.11 1288.54 848.93 1274.37 866.62 1259.13 882.98 1240.38 902.13 1219.13 923.18 1196.24 944.81 1172.9 965.74 1150.06 984.46 1128.33 999.64 1108.55 1010.2 1091.15 1015.42 1076.29 1015.54 1064.14 1010.81 1054.51 1002.33 1044.79 987.24 1035.66 971.72 1033.59 981.08 1032.61 995.76 1031.11 1015.55 1028.81 1038.56 1026.04 1062.25 1022.1 1083.83 1016.95 1100.59 1010.98 1110.63 1003.75 1112.71 995.35 1106.87 986.16 1094.88 975.96 1078.81 964.9 1061.86 959.15 1054.32 953.23 1047.84 947.16 1042.8 940.97 1039.59 934.65 1038.36 928.22 1039.27 921.71 1042.43 915.12 1047.72 908.45 1055.01 901.73 1064.08 894.96 1074.57 888.15 1086.07 881.31 1098.13 874.45 1110.24 867.58 1121.88 860.69 1132.57 853.81 1141.83 846.94 1149.23 840.06 1154.5 833.21 1157.37 826.38 1157.69 819.55 1155.55 812.76 1150.99 806 1144.24 799.25 1135.75 792.54 1125.84 785.87 1115.02 779.21 1103.97 772.59 1093.15 766.02 1083.11 759.46 1074.51 752.94 1067.69 746.46 1063.03 739.99 1060.89 733.56 1061.3 727.17 1064.28 720.78 1069.75 714.47 1077.32 708.23 1086.59 701.99 1097.17 695.82 1108.39 689.71 1119.67 683.59 1130.54 677.54 1140.32 671.55 1148.52 665.54 1154.82 659.59 1158.8 653.68 1160.26 647.76 1159.2 641.88 1155.58 636.04 1149.58 630.18 1141.52 624.35 1131.71 618.55 1120.62 612.72 1108.77 606.91 1096.65 601.13 1084.78 595.3 1073.71 589.5 1063.87 583.7 1055.63 577.86 1049.35 572.03 1045.2 566.2 1043.27 560.33 1043.65 554.45 1046.15 548.57 1050.57 542.64 1056.72 536.7 1064.16 530.75 1072.46 524.76 1081.3 518.75 1090.1 512.73 1098.43 500.57 1112.31 488.37 1119.82 476.15 1119.35 463.83 1110.81 451.55 1094.88 439.34 1073.68 427.17 1049.97 415.17 1026.66 403.4 1006.5 391.82 991.66 380.56 983.29 369.68 981.51 359.08 985.89 348.89 994.55 339.12 1005.36 329.59 1016.53 320.41 1025.38 311.52 1030.16 302.69 1030.06 293.98 1024.16 285.32 1012.71 276.47 996.6 267.51 976.96 258.41 955.38 248.99 933.39 239.44 912.58 229.84 894.21 220.12 879.18 210.58 867.98 201.41 860.63 192.57 857.06 184.42 856.43 177.08 857.84 167.52 862.33 153.1 866.8 147.08 862.75 142.67 856.8 137.74 848.12 132.01 836.94 125.08 823.66 117.1 808.55 108.13 792.13 98.25 774.75 88 756.95 77.91 739.16 68.34 721.54 60.02 704.55 53.44 688.39 48.67 673.05 46.05 658.73 45.46 645.42 46.17 633.04 47.89 621.55 49.84 610.8 50.91 600.79 50.64 591.27 48.46 582.06 45.16 575.43 35.02 562.38 28.49 555.89 23.71 551.59 18.8 547.26 13.88 542.86 9.02 538.5 4.43 534.06 0.23 529.54 -5.08 522.73 -11.24 508.65 -11.78 501.35 -10.45 493.94 -3.66 478.57 1.11 470.61 4.46 465.25 7.79 459.8 10.96 454.23 13.71 448.66 16.01 442.99 17.73 437.22 18.7 431.44 18.95 425.56 18.44 419.59 17.12 413.61 15.09 407.54 12.44 401.38 9.2 395.22 5.61 389.01 1.81 382.75 -2.11 376.49 -5.89 370.18 -9.37 363.83 -12.49 357.49 -15.01 351.1 -16.83 344.68 -17.94 338.27 -18.19 331.83 -17.58 325.35 -16.18 318.89 -13.97 312.4 -11.01 305.88 -7.46 299.38 -3.38 292.87 1.09 286.34 5.76 279.83 10.53 273.31 15.26 266.79 19.75 260.3 23.92 253.81 27.68 247.33 30.87 240.89 33.48 234.46 35.48 228.06 36.78 221.71 37.48 215.38 37.61 209.1 37.15 202.88 36.26 196.71 35.05 190.6 33.53 184.55 31.91 178.58 30.3 172.69 27.36 161.13 25.81 149.94 26.3 139.2 28.89 128.81 33.96 118.9 41.24 109.49 50.06 100.4 60 91.77 70.36 83.58 80.3 75.52 89.44 67.77 97.41 60.22 103.81 52.53 108.88 44.84 112.82 37.04 115.71 28.8 118.23 20.25 120.82 11.35 123.62 1.86 127.25 -8.02 131.94 -18.28 137.56 -28.97 144.37 -39.83 152.27 -50.75 160.87 -61.67 170.17 -72.32 179.9 -82.54 189.67 -92.32 199.45 -101.44 209.06 -109.82 218.26 -117.63 227.17 -124.76 235.8 -131.27 244.04 -137.53 252.16 -143.47 260.26 -149.26 268.3 -155.27 276.56 -161.4 285.12 -167.71 293.89 -174.47 303.08 -181.4 312.71 -188.43 322.6 -195.66 332.88 -202.74 343.49 -209.52 354.23 -216.12 365.16 -222.26 376.21 -227.89 387.18 -233.28 398.15 -238.26 409.07 -242.9 419.74 -247.54 430.31 -252.02 440.77 -256.37 450.93 -260.86 460.99 -265.21 470.99 -269.35 480.71 -273.48 490.42 -277.26 500.15 -280.64 507.35 -283.06 521.79 -287.4 529.06 -289.38 536.32 -291.33 551.02 -295.14 558.47 -297.04 565.95 -299.01 581.15 -302.89 588.87 -304.73 596.65 -306.48 612.46 -309.35 620.51 -310.39 628.6 -311.16 645.04 -311.85 653.4 -311.83 661.8 -311.69 678.87 -311.16 687.55 -310.89" stroke-dasharray="1 8" transform="rotate(4.04, 711, 400)" opacity="0.62"></path><path d="M709.82 -283.39C715.71 -283.35 721.65 -283.27 727.64 -283.16 733.64 -283.07 739.7 -282.93 745.82 -282.74 758.08 -282.39 770.61 -281.76 783.41 -280.78 796.26 -279.71 809.41 -278.26 822.83 -276.45 836.32 -274.59 850.09 -272.46 864.1 -270.1 878.13 -267.8 892.34 -265.31 906.67 -262.61 920.89 -259.91 935.08 -256.91 949.12 -253.57 962.82 -250.1 976.14 -246.25 988.9 -242.07 1001.01 -237.85 1012.26 -233.43 1022.47 -228.88 1031.71 -224.54 1039.66 -220.19 1046.18 -215.84 1053.54 -209.6 1059.79 -196 1059.59 -187.97 1059.15 -182.06 1058.57 -175.53 1058.33 -168.44 1059.38 -161.06 1061.76 -153.34 1066.02 -145.42 1072.8 -137.66 1082.2 -130.02 1094.47 -122.6 1109.63 -115.7 1127.52 -109.12 1147.79 -102.84 1169.69 -97 1192.62 -91.25 1215.61 -85.45 1237.46 -79.67 1257.27 -73.5 1273.92 -66.83 1286.57 -59.71 1294.54 -51.88 1297.38 -43.31 1295.51 -34.14 1289.05 -24.27 1278.84 -13.79 1266.71 -2.91 1253.69 8.34 1241.55 19.85 1232.55 31.38 1227.79 42.9 1228.61 54.29 1235.97 65.38 1249.77 76.19 1269.5 86.68 1293.85 96.7 1320.98 106.4 1348.57 115.8 1374.06 124.75 1395.09 133.49 1409.52 142.09 1416.14 150.38 1414.23 158.66 1404.16 167 1387.85 175.18 1367.16 183.53 1345.02 192.08 1325.15 200.61 1310.11 209.41 1302.48 218.49 1304.13 227.62 1315.15 237.05 1334.67 246.77 1360.59 256.56 1389.69 266.62 1418.21 276.93 1442.44 287.3 1458.96 297.89 1465.39 308.68 1461.1 319.49 1446.4 330.47 1423.42 341.59 1410.02 347.15 1395.91 352.75 1381.63 358.38 1367.84 364 1354.98 369.66 1343.54 375.34 1334.09 381.03 1326.94 386.71 1322.33 392.38 1320.49 398.06 1321.4 403.73 1324.99 409.4 1339.71 420.76 1361.98 432.13 1388.23 443.54 1414.89 455.01 1437.47 466.57 1452.65 478.27 1458.57 490.1 1453.94 502.15 1439.43 514.46 1417.04 526.98 1389.51 539.85 1360.33 553.1 1333 566.62 1310.63 580.56 1295.53 594.93 1289.13 609.53 1291.43 624.49 1301.38 639.76 1317.49 655.04 1336.79 670.41 1356.41 685.69 1374.1 700.57 1386.89 714.98 1393.08 728.67 1392.03 741.41 1383.24 752.97 1367.5 763.11 1346.2 771.83 1321.11 778.85 1294.42 784.07 1268.11 787.88 1244.23 790.07 1224.33 790.86 1204.87 790.87 1200.75 791.64 1211.8 795.97 1221.97 801.99 1232.11 810.65 1240.88 822.18 1247.71 836.58 1251.17 853.49 1250.75 872.38 1246.52 892.35 1238.16 912.5 1226.05 931.69 1210.74 948.75 1192.8 962.67 1173.04 972.56 1152.07 978.11 1130.77 979.04 1109.86 975.67 1089.7 969.28 1070.97 960.73 1053.96 951.6 1038.77 944.07 1025.59 939.37 1014.35 938.96 1005 944.05 997.27 954.66 990.86 970.45 985.79 990.3 981.48 1012.39 977.62 1034.51 974.35 1054.34 971.02 1069.67 967.38 1078.77 963.76 1080.99 959.52 1076.2 954.56 1065.43 949.28 1051.15 943.17 1035.59 936.23 1021.7 928.88 1012.63 920.73 1010.08 911.85 1015.18 902.61 1027.95 892.73 1046.72 882.3 1068.95 871.63 1091.43 860.51 1110.64 849.03 1123.48 837.42 1128.13 825.54 1123.69 813.44 1111 801.29 1092.83 788.98 1072.18 776.56 1052.98 770.34 1045.26 764.1 1039.21 757.84 1035.15 751.58 1033.38 745.3 1033.93 738.99 1036.78 732.69 1041.87 726.41 1048.88 720.15 1057.44 713.89 1067.24 707.64 1077.7 701.41 1088.31 688.95 1108.3 676.55 1123.16 664.19 1130.15 651.81 1128.27 639.45 1117.45 627.1 1099.55 614.71 1077.64 602.32 1055.1 589.91 1035.44 577.46 1021.63 564.98 1015.33 552.5 1016.92 540 1025.83 527.51 1039.7 515.06 1055.7 502.65 1071.22 490.32 1082.95 478.13 1088.71 466.07 1087.56 454.21 1078.97 442.6 1063.9 431.23 1044.14 420.17 1021.9 409.48 999.69 399.07 979.88 389.05 964.34 379.43 954.23 370.05 950.16 361.02 951.55 352.3 957.29 343.69 966.24 335.26 976.13 326.96 985.08 318.55 991.88 310.14 994.75 301.67 992.92 292.96 986.38 284.15 975.06 275.26 959.75 266.18 941.45 257.14 921.36 248.24 900.81 239.42 880.92 230.98 862.81 223.03 847.24 215.47 834.73 208.57 825.45 202.34 819.22 193.9 815.4 179.11 817.53 171.55 819.24 165.75 819.42 159.33 817.96 152.17 814.58 144.1 809.45 135.4 802.19 126.28 792.93 116.91 781.98 107.81 769.41 99.44 755.55 91.97 740.67 85.95 725.09 81.62 709.14 78.77 692.92 77.53 676.8 77.62 660.98 78.25 645.42 79.17 630.39 79.72 615.96 79.04 602 76.93 588.66 73.09 575.89 67.27 563.59 59.92 551.77 51.55 540.33 42.65 529.24 34.24 518.4 27.17 507.72 21.9 497.25 19.17 486.83 19.18 476.37 21.44 466.02 25.74 455.55 31.31 444.94 36.81 434.35 41.6 423.58 44.77 412.59 45.48 404.32 42.82 387.51 39.6 378.96 36.8 373.24 33.71 367.51 30.44 361.75 27.06 356 23.77 350.24 20.73 344.46 15.58 332.92 12.7 321.36 12.59 309.81 15.09 298.32 20.24 286.88 27.42 275.55 35.57 264.31 44 253.23 51.81 242.34 58.04 231.61 62.44 221.12 64.84 210.94 65.13 200.93 63.99 191.26 62.04 181.95 59.7 172.81 58 164.03 57.59 155.61 58.61 147.29 61.64 139.26 66.67 131.49 73.27 123.66 81.32 115.95 90.32 108.29 99.58 100.36 108.76 92.32 117.43 84.09 125.11 75.39 131.79 66.37 137.48 57 142.06 47.1 145.97 36.85 149.49 26.28 152.7 15.34 156.16 4.26 160.14 -6.85 164.6 -17.95 169.93 -28.81 176.16 -39.26 183.04 -49.29 190.73 -58.69 199.05 -67.37 207.68 -75.45 216.63 -82.79 225.72 -89.45 234.67 -95.72 243.54 -101.54 252.27 -107.05 260.69 -112.67 268.96 -118.3 277.13 -124.09 285.12 -130.35 293.18 -136.9 301.37 -143.73 309.64 -151 318.21 -158.38 327.13 -165.73 336.3 -173.11 345.87 -180.17 355.83 -186.77 366.05 -193.04 376.61 -198.74 387.46 -203.87 398.43 -208.7 409.59 -213.11 420.87 -217.2 432.11 -221.33 443.37 -225.34 454.61 -229.29 465.68 -233.47 476.69 -237.6 487.61 -241.63 498.3 -245.76 508.91 -249.64 519.46 -253.22 529.78 -256.7 540.06 -259.83 550.34 -262.6 560.43 -265.32 570.56 -267.78 580.78 -270.01 590.85 -272.3 601.05 -274.4 611.41 -276.28 621.67 -278.17 632.13 -279.75 642.82 -280.97 653.44 -282.09 664.32 -282.82 675.47 -283.17 683.86 -283.37 701.03 -283.46 709.81 -283.39" stroke-dasharray="5 6" transform="rotate(8.08, 711, 400)" opacity="0.73"></path><path d="M733.07 -255.89C744.98 -255.91 757 -255.59 769.12 -254.93 781.24 -254.21 793.45 -253.16 805.75 -251.83 818.03 -250.51 830.35 -248.98 842.67 -247.25 854.92 -245.65 867.1 -243.9 879.14 -242 891 -240.2 902.61 -238.17 913.86 -235.85 924.79 -233.43 935.21 -230.6 944.99 -227.31 954.29 -223.79 962.81 -219.83 970.43 -215.49 977.44 -211.07 983.47 -206.46 988.47 -201.77 994.62 -195.15 1002.01 -182.92 1004.16 -177.08 1005.83 -173.21 1007.68 -169 1010.07 -164.34 1013.68 -159.31 1018.5 -153.62 1024.89 -147.26 1033.29 -140.43 1043.72 -133.03 1056.37 -125.18 1071.19 -117.19 1088.08 -109.06 1106.83 -100.96 1126.84 -93.2 1147.75 -85.73 1168.86 -78.61 1189.27 -72.07 1208.32 -65.88 1225.16 -59.98 1239.05 -54.47 1249.37 -49 1255.59 -43.42 1257.82 -37.81 1255.87 -31.78 1250.11 -25.24 1241.73 -18.26 1231.27 -10.59 1219.96 -2.21 1209.7 6.74 1201.39 16.37 1196.41 26.6 1196.22 37.27 1201.22 48.36 1211.81 59.75 1227.85 71.29 1248.51 82.93 1272.55 94.56 1298.21 106.06 1323.58 117.4 1346.55 128.54 1365.17 139.37 1377.81 149.94 1383.29 160.27 1381.53 170.23 1372.65 179.98 1357.78 189.55 1339.32 198.81 1319.21 207.96 1300.16 217.07 1285.26 225.94 1276.32 234.84 1275.02 243.83 1282.26 252.67 1297.46 261.66 1319.27 270.83 1345.41 279.91 1372.85 289.22 1398.3 298.76 1418.72 308.26 1431.44 318.02 1434.74 328.05 1428.48 338.06 1413.2 348.35 1390.92 358.92 1365.15 369.48 1339.06 380.35 1316.38 391.52 1300.74 402.69 1294.08 414.05 1297.12 425.6 1309.55 437.18 1329.15 448.98 1353 461 1378.14 473.06 1400.63 485.37 1417.4 497.92 1426.57 510.53 1426.48 523.4 1417.18 536.5 1399.91 549.64 1376.53 562.98 1349.81 576.47 1322.73 589.91 1298.19 603.4 1278.63 616.84 1265.93 630.04 1260.87 643.01 1263.36 655.59 1272.81 667.66 1287.26 679.09 1304.5 689.71 1322.68 699.51 1338.94 708.27 1351.25 715.84 1358.46 722.44 1359.16 727.78 1353.13 731.85 1340.88 735.14 1323.15 737.4 1301.39 738.85 1277.14 740.21 1252.23 741.37 1228.34 742.76 1206.86 745.16 1189.04 748.62 1175.59 753.57 1166.96 760.58 1162.98 769.67 1163.14 781.02 1167.07 794.63 1173.46 810.27 1181.2 827.6 1189.7 845.96 1197.41 864.76 1203.4 883.15 1207.43 900.2 1208.46 915.13 1206.22 927.1 1200.9 935.68 1192.29 940.41 1180.72 941.2 1166.63 938.74 1150.44 933.38 1132.74 926.09 1113.96 918.57 1094.74 911.76 1075.61 907.07 1056.78 906.07 1038.81 909.31 1021.96 917.33 1006.25 930.17 991.95 947.05 979.04 966.83 967.48 987.84 957.2 1008.22 948.04 1025.98 939.98 1039.47 932.71 1047.32 926.02 1048.82 920.02 1044.44 914.25 1034.83 908.54 1021.63 903.12 1007.53 897.49 994.55 891.55 985.11 885.64 981.46 879.27 984.41 872.39 994.19 865.4 1010.06 857.87 1030.01 849.78 1051.44 841.55 1071.5 832.79 1087.27 823.51 1096.39 814.13 1097.81 804.27 1091.16 793.98 1077.59 783.62 1059.8 772.87 1040.49 761.76 1023.04 750.62 1010.91 739.16 1005.97 727.4 1009.27 715.64 1020.57 703.74 1037.51 691.73 1057.06 679.74 1076.18 667.66 1091.18 655.49 1099.51 643.37 1100.05 631.17 1092.33 618.94 1077.57 606.75 1058.13 594.54 1036.74 582.34 1016.49 570.22 1000.26 558.13 989.97 546.12 986.63 534.24 990.45 522.48 1000.03 510.89 1013.37 499.48 1028.42 488.3 1042.18 477.37 1052.28 466.69 1057.33 456.32 1055.91 446.28 1047.95 436.51 1034.31 427.08 1016.2 418 995.56 409.13 974.45 400.57 954.88 392.29 938.54 384.1 926.71 376.09 919.92 368.22 918.08 360.26 920.87 352.33 926.94 344.38 934.84 336.2 943.51 327.95 951 319.62 956.03 311.06 957.99 302.46 955.87 293.9 949.53 285.25 939.31 276.79 925.54 268.6 909.05 260.58 890.73 252.99 871.6 245.88 852.67 239.09 834.69 232.79 818.47 226.95 804.46 221.27 792.99 215.83 784.11 210.48 777.63 204.87 773.5 199.04 771.11 192.85 769.92 186.03 769.81 178.72 769.88 170.96 769.64 162.7 769.11 154.27 767.5 145.94 764.58 137.81 760.55 130.36 754.94 123.89 747.8 118.4 739.39 114.25 729.59 111.49 718.61 109.72 706.66 108.99 693.87 108.95 680.46 108.88 666.53 108.59 652.32 107.62 638.01 105.35 623.55 101.77 609.21 96.81 595.09 90.41 581.06 83.07 567.34 75.31 553.97 67.52 540.76 60.56 527.9 55.05 515.37 51.22 503 49.59 490.91 50.22 479.08 52.56 467.35 56.42 455.83 61.12 444.47 65.59 433.16 69.34 421.98 71.71 410.89 71.99 399.82 70.28 388.81 66.77 377.88 61.67 366.94 56.02 356.18 50.68 345.62 46.14 335.06 43.42 324.69 42.95 314.54 44.6 304.4 48.56 294.49 54.41 284.82 61.3 275.18 68.78 265.8 76.1 256.69 82.42 247.59 87.46 238.77 90.98 230.21 92.7 221.63 93.06 213.29 92.44 205.16 91.09 196.94 89.83 188.85 89.21 180.85 89.42 172.65 91.06 164.43 94.32 156.14 98.94 147.51 105.03 138.7 112.3 129.66 120.22 120.18 128.59 110.41 137.02 100.33 145.02 89.85 152.5 79.09 159.32 68.11 165.25 56.9 170.51 45.64 175.25 34.42 179.42 23.29 183.48 12.45 187.63 2.03 191.86 -7.95 196.57 -17.33 201.88 -26.02 207.63 -34.11 214.06 -41.47 221.13 -48.14 228.56 -54.37 236.45 -60.1 244.67 -65.45 252.94 -70.8 261.32 -76.08 269.72 -81.45 277.92 -87.25 286.05 -93.36 294.08 -99.81 301.89 -106.82 309.67 -114.12 317.48 -121.62 325.22 -129.37 333.12 -137.03 341.24 -144.43 349.5 -151.6 358.09 -158.24 367.03 -164.27 376.25 -169.83 385.85 -174.77 395.82 -179.13 406.07 -183.24 416.64 -187.01 427.49 -190.57 438.53 -194.29 449.77 -198.01 461.16 -201.81 472.6 -205.93 484.12 -210.11 495.68 -214.26 507.19 -218.55 518.68 -222.64 530.15 -226.42 541.51 -230.06 552.82 -233.27 564.1 -236.03 575.25 -238.61 586.38 -240.8 597.51 -242.66 608.51 -244.49 619.55 -246.1 630.65 -247.52 641.66 -249.04 652.76 -250.41 663.98 -251.59 675.15 -252.84 686.47 -253.86 697.97 -254.62 709.45 -255.36 721.14 -255.79 733.06 -255.89" stroke-dasharray="10 9" transform="rotate(12.12, 711, 400)" opacity="0.12"></path><path d="M737.85 -228.38C749.37 -228.48 760.75 -228.08 771.96 -227.21 783.15 -226.17 794.16 -224.76 804.94 -223.08 815.66 -221.48 826.11 -219.77 836.23 -218.01 846.24 -216.52 855.85 -215.02 865.01 -213.49 873.98 -212.12 882.42 -210.56 890.28 -208.73 897.88 -206.74 904.84 -204.28 911.13 -201.27 917.15 -197.92 922.51 -194.03 927.23 -189.64 931.79 -185.08 935.82 -180.25 939.43 -175.3 943.16 -170.56 946.72 -165.94 950.31 -161.5 954.48 -157.51 959.06 -153.72 964.31 -150.06 970.68 -146.64 978.13 -143.1 986.9 -139.28 997.2 -135.26 1009.06 -130.66 1022.55 -125.41 1037.55 -119.64 1054.02 -113.14 1071.76 -105.98 1090.28 -98.4 1109.37 -90.36 1128.52 -82.03 1147.03 -73.72 1164.48 -65.44 1180.21 -57.32 1193.66 -49.66 1204.35 -42.36 1211.82 -35.47 1216.06 -29.16 1216.82 -23.2 1214.21 -17.5 1209.04 -12.19 1201.53 -6.9 1192.46 -1.51 1183.34 3.88 1174.73 9.66 1167.81 15.89 1164.01 22.49 1163.83 29.72 1168 37.58 1177.03 45.96 1190.69 54.99 1208.58 64.6 1229.8 74.67 1253.16 85.21 1277.14 96.12 1300.02 107.31 1320.18 118.71 1336.01 130.25 1346.4 141.84 1350.49 153.43 1347.98 164.97 1339.65 176.39 1326.18 187.69 1309.15 198.84 1291.03 209.79 1273.59 220.59 1259.09 231.24 1249.89 241.68 1247.07 252.01 1251.51 262.25 1263.35 272.31 1281.55 282.34 1304.48 292.37 1329.87 302.27 1355.01 312.22 1377.1 322.26 1393.75 332.21 1402.92 342.3 1403.46 352.55 1395.59 362.75 1379.98 373.15 1358.54 383.76 1334.39 394.36 1310.23 405.19 1289.21 416.28 1274.47 427.37 1267.67 438.58 1269.48 449.93 1279.79 461.27 1296.82 472.74 1318.23 484.31 1341.6 495.87 1363.53 507.5 1381.25 519.17 1392.94 530.78 1396.76 542.37 1392.27 553.87 1380.12 565.22 1361.42 576.4 1338.2 587.3 1312.88 597.94 1287.96 608.17 1265.8 617.9 1248.42 627.21 1237.13 635.88 1232.53 643.81 1234.76 651.21 1242.81 657.8 1255.27 663.52 1270.83 668.74 1287.1 673.14 1302.11 676.79 1318.57 681.66 1318.03 690.19 1299.89 695.29 1281.87 699.89 1260.8 705.51 1238.1 712.43 1215.05 721 1193.07 731.21 1173.3 743.14 1156.55 756.73 1143.49 771.82 1134.33 788.15 1129.2 805.21 1127.64 822.58 1129.07 839.67 1133.16 855.76 1138.76 870.27 1144.98 882.56 1158.86 898.31 1151.85 886.06 1137.98 877.2 1125.92 873.62 1112.06 872.77 1096.85 875.46 1080.54 882.36 1063.61 893.32 1046.45 908.01 1029.17 925.64 1012.23 945.02 995.86 964.67 980.04 983 965.07 998.46 951.01 1009.65 937.77 1015.83 925.46 1016.44 914.02 1011.68 903.35 1002.79 893.4 990.87 884.04 977.77 875.26 965.99 866.88 957.11 858.76 952.85 850.99 954.58 843.31 962.36 835.61 975.72 828.07 993.42 820.39 1013.35 812.49 1033.07 804.64 1050.2 796.5 1062.39 788.04 1068 779.57 1066.57 770.74 1058.16 761.56 1044.08 752.36 1026.91 742.79 1009.01 732.87 993.27 722.94 982.61 712.66 978.51 702.08 981.77 691.49 992.2 680.73 1007.77 669.84 1025.91 658.98 1044.07 648.01 1059.01 636.97 1068.39 625.99 1071.04 614.98 1066.2 603.97 1054.56 593.05 1037.89 582.17 1018.27 571.38 998.33 560.71 980.69 550.18 967.38 539.8 959.77 529.6 958.63 519.61 963.4 509.85 972.88 500.28 985.68 490.98 999.3 481.96 1011.56 473.13 1020.91 464.57 1025.46 456.3 1024.38 448.15 1017.73 440.23 1005.76 432.54 989.6 424.85 970.76 417.3 950.89 409.85 931.71 402.28 914.73 394.71 901.14 387.12 891.65 379.3 886.68 371.39 885.87 363.39 888.52 355.14 894.06 346.81 900.97 338.45 908 329.93 914.41 321.48 918.74 313.16 920.23 304.88 918.67 296.86 913.52 289.18 904.91 281.7 893.27 274.62 879.01 267.95 862.86 261.48 845.49 255.34 827.72 249.46 810.26 243.56 793.63 237.71 778.42 231.81 764.97 225.59 753.47 219.13 743.99 212.39 736.4 205.21 730.71 197.8 726.48 190.27 723.36 182.59 721.32 175.1 719.69 168.04 718.1 158.51 715.66 145.3 706.52 141.84 699 140.39 692.83 139.47 685.59 138.76 677.35 137.65 668.38 136.08 658.56 133.74 648.05 130.22 637.01 125.68 625.48 120.17 613.6 113.71 601.41 106.84 589.04 99.98 576.6 93.43 564.03 87.88 551.49 83.75 539.06 81.08 526.6 80.25 514.3 81.22 502.19 83.42 490.1 86.71 478.22 90.55 466.55 94.04 454.91 96.87 443.47 98.55 432.25 98.52 421.05 96.93 410.04 93.93 399.23 89.65 388.42 84.95 377.92 80.48 367.72 76.57 357.5 74.09 347.57 73.41 337.9 74.43 328.2 77.39 318.75 82.04 309.54 87.71 300.26 94.15 291.18 100.75 282.28 106.81 273.28 112.09 264.4 116.3 255.62 119.09 246.67 120.71 237.76 121.39 228.82 121.17 219.65 120.72 210.4 120.44 201.01 120.48 191.33 121.43 181.47 123.54 171.39 126.66 161.01 131.06 150.41 136.64 139.6 142.98 128.56 150.05 117.37 157.57 106.11 165.08 94.8 172.52 83.55 179.69 72.46 186.3 61.58 192.45 51.05 198.14 40.98 203.28 31.37 208.16 22.35 212.91 14.01 217.5 6.22 222.26 -0.88 227.35 -7.34 232.63 -13.39 238.4 -18.95 244.68 -24.13 251.25 -29.28 258.29 -34.33 265.72 -39.43 273.28 -44.91 281.08 -50.68 289.02 -56.8 296.86 -63.51 304.71 -70.61 312.52 -78.03 320.11 -85.85 327.64 -93.78 335.12 -101.65 342.42 -109.45 349.75 -116.89 357.15 -123.79 364.53 -130.24 372.1 -136 379.9 -141.05 387.85 -145.63 396.12 -149.64 404.72 -153.17 413.58 -156.62 422.81 -159.9 432.39 -163.15 442.24 -166.72 452.41 -170.46 462.88 -174.38 473.57 -178.71 484.5 -183.13 495.61 -187.55 506.87 -192.06 518.25 -196.32 529.73 -200.19 541.28 -203.82 552.87 -206.92 564.49 -209.47 576.12 -211.72 587.75 -213.51 599.36 -214.91 610.97 -216.27 622.55 -217.44 634.12 -218.5 645.67 -219.78 657.2 -221.04 668.73 -222.27 680.24 -223.72 691.76 -225.05 703.27 -226.19 714.79 -227.3 726.31 -228.06 737.84 -228.38" stroke-dasharray="4 4" transform="rotate(16.16, 711, 400)" opacity="0.75"></path><path d="M720.16 -200.88C730.72 -201.05 740.97 -200.6 750.9 -199.57 760.8 -198.27 770.35 -196.55 779.53 -194.55 788.65 -192.64 797.37 -190.7 805.67 -188.81 813.9 -187.29 821.68 -185.9 829.02 -184.6 836.28 -183.57 843.11 -182.44 849.51 -181.09 855.88 -179.63 861.9 -177.67 867.6 -175.15 873.4 -172.2 879.02 -168.6 884.57 -164.4 890.43 -159.87 896.42 -154.95 902.69 -149.76 909.56 -144.68 916.95 -139.65 925.04 -134.79 934.03 -130.4 943.94 -126.3 954.88 -122.48 966.88 -119.12 980 -115.86 994.23 -112.59 1009.37 -109.37 1025.41 -105.8 1042.18 -101.75 1059.26 -97.29 1076.51 -92.14 1093.56 -86.24 1109.88 -79.78 1125.21 -72.62 1139.07 -64.87 1151.06 -56.79 1160.84 -48.37 1168.06 -39.78 1172.74 -31.29 1174.62 -22.93 1173.72 -14.81 1170.67 -7.16 1165.48 0.09 1158.69 6.95 1151.42 13.23 1144.02 19.17 1137.34 24.84 1132.64 30.12 1130.33 35.33 1131.13 40.58 1135.78 45.77 1144.32 51.23 1156.81 57.04 1172.93 63.09 1192.06 69.65 1213.3 76.74 1235.43 84.24 1257.24 92.31 1277.31 100.93 1294.33 109.97 1307.17 119.5 1314.86 129.46 1317.16 139.75 1313.83 150.35 1305.25 161.21 1292.78 172.26 1277.37 183.46 1260.7 194.74 1245.04 206.1 1231.82 217.46 1222.73 228.8 1219.39 240.13 1222.25 251.39 1231.53 262.58 1246.81 273.71 1266.8 284.76 1289.76 295.73 1313.6 306.64 1335.95 317.48 1354.52 328.27 1367.53 339.02 1373.46 349.73 1371.6 360.42 1362.46 371.09 1346.77 381.76 1326.29 392.44 1303.77 403.11 1281.46 413.8 1262.05 424.51 1248.2 435.22 1241.32 445.82 1242.05 456.29 1250.41 466.75 1265.01 477.05 1283.98 487.18 1305.4 497.26 1326.36 507.12 1344.43 516.72 1357.92 526.22 1364.94 535.39 1364.72 544.2 1357.47 552.84 1343.64 561.04 1324.63 568.77 1302.28 576.28 1278.59 583.26 1255.68 589.7 1235.48 595.93 1219.55 601.61 1208.93 606.79 1204.3 611.86 1205.44 616.53 1211.67 620.88 1222.3 625.39 1235.58 629.81 1249.9 634.31 1264.11 639.36 1276.24 644.81 1285.04 650.88 1289.93 657.92 1289.95 665.89 1284.98 674.95 1275.39 685.25 1261.53 696.77 1244.27 709.52 1224.58 723.35 1203.57 738.16 1182.36 753.71 1161.89 769.58 1143.14 785.5 1126.83 801.02 1113.41 815.61 1103.2 828.88 1096.17 840.33 1109.59 847.55 1107.17 845.49 1096.18 858.94 1086.61 872.34 1075.48 888.38 1063.07 906.18 1049.61 924.62 1035.35 942.45 1020.6 958.34 1005.42 971.16 990.15 979.91 975.01 983.93 959.95 983.33 945.26 978.23 931.06 969.42 917.2 958.56 903.91 946.87 891.2 936.06 878.92 928.16 867.19 924.22 855.96 925.24 845.1 931.79 834.66 943.36 824.55 959.02 814.72 977.29 805.12 996.15 795.68 1013.45 786.42 1027.31 777.23 1035.96 768.06 1038.35 758.98 1034.5 749.85 1024.77 740.66 1010.53 731.49 994.19 722.21 977.76 712.81 963.69 703.41 954.41 693.88 951.05 684.22 954.27 674.55 963.87 664.88 978.13 655.22 994.88 645.57 1012.02 635.95 1026.7 626.38 1036.83 616.84 1041.26 607.39 1039.03 598.05 1030.42 588.77 1016.67 579.62 999.31 570.63 980.47 561.73 962.43 553 947.13 544.49 936.13 536.05 930.56 527.83 930.5 519.83 935.45 511.88 944.66 504.14 956.28 496.59 968.52 489.05 979.94 481.66 988.53 474.41 993.06 467.06 993.01 459.79 987.84 452.56 977.9 445.15 964.04 437.71 947.25 430.21 928.91 422.46 910.42 414.61 893.11 406.66 878.1 398.45 866.27 390.14 858.05 381.77 853.52 373.23 852.65 364.69 854.69 356.21 858.83 347.71 864.53 339.39 870.46 331.3 875.67 323.35 879.73 315.71 881.58 308.43 880.78 301.35 877.34 294.62 870.94 288.21 861.77 281.91 850.24 275.82 836.67 269.87 821.64 263.83 805.63 257.77 789.25 251.63 773.03 245.22 757.32 238.66 742.59 231.99 729.1 225.08 717 218.18 706.4 211.4 697.25 204.7 689.6 198.39 683.19 192.63 677.81 185.07 671.62 174.68 661.89 171.59 657.06 169.1 651.77 163.2 637.67 158.5 628.59 154.22 621.89 149.23 614.49 143.68 606.48 137.61 598.1 131.49 589.19 125.71 579.82 120.4 570.2 116.11 560.23 113.11 550 111.31 539.61 110.99 529.05 112.04 518.37 113.94 507.61 116.6 496.81 119.59 485.98 122.18 475.14 124.2 464.31 125.31 453.53 125.05 442.75 123.61 432.02 121.1 421.36 117.58 410.7 113.75 400.23 110.1 389.93 106.84 379.61 104.68 369.45 103.93 359.43 104.49 349.36 106.66 339.4 110.27 329.53 114.82 319.57 120.19 309.66 125.95 299.76 131.49 289.74 136.64 279.69 141.13 269.59 144.59 259.33 147.16 248.98 148.91 238.51 149.8 227.89 150.29 217.14 150.69 206.26 151.05 195.26 151.9 184.16 153.47 172.98 155.7 161.78 158.9 150.59 163.1 139.46 167.99 128.47 173.68 117.66 179.98 107.13 186.52 96.91 193.3 87.11 200.13 77.79 206.71 68.93 213.09 60.64 219.22 52.98 224.92 45.79 230.39 39.2 235.7 33.17 240.76 27.47 245.84 22.17 251.06 17.2 256.32 12.21 261.89 7.29 267.81 2.33 273.95 -3.01 280.48 -8.62 287.39 -14.58 294.46 -21.12 301.82 -28.07 309.4 -35.4 316.97 -43.2 324.63 -51.21 332.32 -59.31 339.83 -67.48 347.29 -75.42 354.69 -82.98 361.85 -90.16 368.94 -96.71 375.99 -102.54 382.86 -107.81 389.77 -112.37 396.74 -116.28 403.67 -119.85 410.76 -123.02 418.05 -125.95 425.44 -129.01 433.1 -132.13 441.05 -135.42 449.19 -139.19 457.66 -143.23 466.44 -147.52 475.45 -152.21 484.76 -156.96 494.35 -161.64 504.17 -166.29 514.22 -170.57 524.47 -174.36 534.91 -177.77 545.5 -180.54 556.21 -182.69 567.06 -184.48 577.98 -185.78 588.94 -186.71 599.99 -187.64 611.06 -188.46 622.1 -189.28 633.2 -190.43 644.26 -191.69 655.24 -193.06 666.27 -194.74 677.21 -196.38 688.03 -197.87 698.88 -199.32 709.59 -200.36 720.15 -200.88" stroke-dasharray="10 5" transform="rotate(20.200000000000003, 711, 400)" opacity="0.12"></path><path d="M694.81 -173.37C704.26 -173.62 713.46 -173.15 722.39 -172.01 731.32 -170.5 739.97 -168.53 748.35 -166.25 756.72 -164.04 764.83 -161.82 772.69 -159.73 780.57 -158.07 788.24 -156.64 795.73 -155.43 803.31 -154.59 810.77 -153.79 818.19 -152.88 825.79 -151.93 833.45 -150.56 841.25 -148.64 849.38 -146.28 857.78 -143.22 866.56 -139.46 875.82 -135.23 885.6 -130.45 895.98 -125.24 906.96 -119.94 918.62 -114.54 931.02 -109.2 944.01 -104.23 957.7 -99.55 972.04 -95.22 986.75 -91.44 1001.89 -87.98 1017.28 -84.74 1032.57 -81.83 1047.68 -78.88 1062.32 -75.73 1076.15 -72.44 1088.97 -68.66 1100.44 -64.27 1110.37 -59.36 1118.47 -53.71 1124.5 -47.33 1128.59 -40.4 1130.49 -32.83 1130.21 -24.75 1128.3 -16.38 1124.66 -7.75 1119.66 0.97 1114.21 9.59 1108.45 18.06 1103.01 26.3 1098.92 34.09 1096.42 41.52 1096.14 48.56 1098.79 55.07 1104.48 61.24 1113.44 67.11 1125.68 72.57 1140.88 77.89 1158.59 83.16 1178.05 88.26 1198.45 93.49 1218.75 98.93 1237.83 104.45 1254.68 110.31 1268.25 116.56 1277.85 123.06 1282.84 130.02 1282.92 137.42 1278.51 145.15 1269.83 153.31 1257.71 161.89 1243.73 170.77 1228.88 180 1214.7 189.54 1203.08 199.32 1194.99 209.33 1191.57 219.52 1193.73 229.89 1201.45 240.36 1214.45 250.9 1231.95 261.55 1252.56 272.22 1274.61 282.87 1296.23 293.59 1315.47 304.26 1330.51 314.86 1340.08 325.49 1343.1 336.05 1339.23 346.5 1329.16 356.97 1313.61 367.33 1294.17 377.56 1273.27 387.8 1252.76 397.91 1234.88 407.86 1221.92 417.82 1215.04 427.49 1214.83 436.86 1221.42 446.22 1233.72 455.26 1250.29 463.97 1269.62 472.66 1289.27 480.99 1307.16 488.97 1321.78 496.91 1331.26 504.48 1334.66 511.69 1331.87 518.87 1322.83 525.7 1308.39 532.2 1289.87 538.73 1268.74 545 1246.75 551.05 1225.62 557.25 1206.91 563.35 1191.87 569.46 1181.49 575.9 1176.13 582.52 1175.74 589.43 1180.16 596.91 1188.35 604.88 1199.19 613.46 1211.84 622.8 1224.6 632.9 1236.19 643.81 1245.91 655.53 1252.42 668.04 1255.11 681.31 1253.89 695.11 1248.42 709.4 1238.96 723.96 1226.05 738.43 1210.24 752.66 1192.37 766.28 1173.2 778.96 1153.65 790.41 1134.55 800.29 1116.52 808.46 1100.25 814.64 1086.15 818.67 1058.67 811.49 1063.32 807.21 1066.34 816.57 1067.45 826.73 1067.27 839.53 1065.68 854.54 1062.93 871.06 1058.63 888.24 1052.87 905.07 1045.89 920.53 1037.6 933.61 1028.15 943.43 1017.77 949.52 1006.53 951.45 994.62 949.22 982.15 943.62 969.31 935.14 956.27 924.89 943 914.59 929.74 905.28 916.61 898.33 903.48 895.19 890.6 896.33 878.01 902.12 865.55 912.51 853.43 926.62 841.65 943.26 830.03 960.96 818.73 977.87 807.75 992.25 796.92 1002.7 786.35 1007.99 776.03 1007.54 765.81 1001.74 755.78 991.11 745.94 977.03 736.15 961.68 726.5 946.76 716.98 934.29 707.48 926.29 698.07 923.62 688.76 926.76 679.45 935.58 670.33 948.58 661.4 963.97 652.46 980.03 643.7 994.29 635.13 1004.9 626.55 1010.78 618.15 1010.85 609.95 1005.09 601.73 994.31 593.7 979.54 585.86 962.43 577.99 944.9 570.3 928.67 562.77 915.31 555.19 906.12 547.75 901.65 540.45 901.95 533.04 906.81 525.71 915.05 518.45 925.35 511.03 936.63 503.63 947.01 496.21 955.13 488.58 960.24 480.89 961.23 473.12 957.84 465.1 950.32 456.99 938.95 448.77 924.55 440.32 908.17 431.79 890.87 423.2 873.79 414.45 857.96 405.71 844.22 397.02 833.17 388.3 825.26 379.73 820.46 371.35 818.55 363.09 819.38 355.11 822.13 347.45 826.07 339.99 830.83 332.87 835.31 326.1 838.85 319.51 841.24 313.21 841.65 307.15 839.84 301.14 835.89 295.26 829.55 289.47 820.99 283.54 810.52 277.61 798.37 271.63 784.93 265.45 770.56 259.24 755.69 253.05 740.71 246.76 725.85 240.62 711.51 234.74 697.91 229.01 685.14 223.72 673.39 218.95 662.68 214.55 653.03 210.75 644.38 207.53 636.62 204.61 629.78 202.12 623.59 199.93 617.9 196.52 610.36 188.15 596.21 182.5 588.92 177.93 584 172.97 578.71 167.79 573 162.39 567.18 157.2 560.9 152.51 554.16 148.33 547.28 145.09 539.94 142.95 532.18 141.73 524.3 141.65 516.03 142.59 507.41 144.07 498.71 146.06 489.7 148.24 480.42 150.02 471.09 151.36 461.53 152 451.75 151.59 441.96 150.31 431.98 148.26 421.82 145.45 411.66 142.42 401.45 139.55 391.19 136.93 380.94 135.15 370.64 134.45 360.3 134.73 349.94 136.28 339.53 139.04 329.05 142.6 318.56 146.95 307.99 151.8 297.35 156.65 286.68 161.41 275.94 165.83 265.13 169.57 254.32 172.7 243.46 175.24 232.58 177.03 221.74 178.42 210.92 179.6 200.16 180.55 189.53 181.71 179.03 183.26 168.73 185.14 158.67 187.71 148.89 191 139.46 194.82 130.38 199.35 121.72 204.5 113.54 209.96 105.76 215.79 98.49 221.88 91.75 227.91 85.36 233.97 79.44 239.97 73.96 245.71 68.66 251.33 63.65 256.84 58.85 262.13 53.94 267.41 49.03 272.75 44.03 278.06 38.63 283.56 32.95 289.32 26.93 295.22 20.35 301.45 13.37 308.02 6.01 314.77 -1.81 321.82 -9.88 329.15 -18.11 336.56 -26.47 344.14 -34.7 351.84 -42.65 359.45 -50.31 367.07 -57.43 374.67 -63.89 382.06 -69.79 389.36 -74.95 396.57 -79.37 403.53 -83.31 410.41 -86.67 417.22 -89.6 423.83 -92.44 430.44 -95.15 437.07 -97.89 443.6 -101 450.23 -104.38 457.01 -108.08 463.78 -112.33 470.75 -116.88 477.94 -121.65 485.22 -126.7 492.75 -131.71 500.52 -136.5 508.44 -141.1 516.61 -145.19 525.01 -148.65 533.57 -151.62 542.34 -153.89 551.3 -155.5 560.4 -156.76 569.66 -157.56 579.05 -158.06 588.54 -158.65 598.12 -159.23 607.76 -159.93 617.48 -161.07 627.21 -162.43 636.93 -163.99 646.71 -165.92 656.43 -167.87 666.09 -169.67 675.76 -171.4 685.34 -172.68 694.8 -173.37" stroke-dasharray="7 1" transform="rotate(24.24, 711, 400)" opacity="0.52"></path><path d="M683 -145.87C691.71 -146.19 700.37 -145.72 708.98 -144.51 717.6 -142.87 726.19 -140.7 734.75 -138.17 743.34 -135.69 751.95 -133.19 760.59 -130.84 769.31 -128.95 778.12 -127.36 787.06 -126.09 796.14 -125.3 805.42 -124.67 814.94 -124.07 824.68 -123.56 834.73 -122.75 845.14 -121.48 855.83 -119.82 866.93 -117.47 878.45 -114.39 890.27 -110.75 902.52 -106.42 915.18 -101.49 928.05 -96.27 941.24 -90.74 954.67 -85.06 968.09 -79.57 981.55 -74.24 994.88 -69.19 1007.83 -64.68 1020.35 -60.56 1032.23 -56.82 1043.26 -53.61 1053.29 -50.63 1062.09 -47.78 1072.66 -43.68 1083.77 -33.67 1084.17 -27.03 1082.79 -21.84 1080.15 -15.94 1076.54 -9.33 1072.71 -2.2 1068.66 5.5 1064.84 13.68 1062.09 22.14 1060.51 30.84 1060.57 39.66 1062.91 48.4 1067.59 57.05 1074.84 65.5 1084.81 73.6 1097.33 81.39 1112.19 88.85 1128.93 95.84 1147.03 102.49 1165.81 108.85 1184.42 114.78 1202.08 120.51 1217.91 126.1 1231.16 131.42 1241.13 136.72 1247.27 142.09 1249.49 147.37 1247.59 152.82 1241.76 158.49 1232.91 164.22 1221.47 170.25 1208.46 176.59 1195.43 183.08 1183.22 189.92 1173.07 197.08 1166.38 204.42 1163.7 212.09 1165.63 220.04 1172.54 228.17 1184.03 236.55 1199.51 245.15 1218.02 253.89 1238.21 262.8 1258.55 271.84 1277.49 280.98 1293.44 290.21 1305.04 299.5 1311.44 308.85 1311.94 318.22 1306.43 327.57 1295.72 336.96 1280.51 346.31 1262.21 355.6 1242.91 364.9 1224.12 374.11 1207.72 383.22 1195.62 392.33 1188.8 401.22 1187.79 409.89 1192.78 418.55 1202.96 426.99 1217.19 435.22 1234.37 443.45 1252.45 451.48 1269.68 459.34 1284.79 467.24 1296 475 1302.3 482.65 1303.37 490.41 1298.8 498.13 1288.98 505.87 1274.79 513.79 1257.17 521.83 1237.48 530.04 1217.15 538.55 1197.56 547.35 1179.97 556.49 1165.48 566.03 1154.82 576.01 1148.38 586.47 1146.4 597.38 1148.48 608.79 1154.02 620.69 1162.57 632.96 1172.87 645.62 1183.87 658.59 1194.95 671.63 1204.72 684.74 1212.35 697.71 1217.52 710.3 1219.4 722.38 1217.78 733.7 1212.82 744.07 1204.47 753.28 1193.13 761.13 1179.29 767.6 1163.5 772.47 1146.42 775.68 1128.64 777.53 1110.84 777.88 1093.63 776.9 1077.4 775.24 1062.66 772.89 1049.67 770.28 1038.62 768.22 1029.58 766.85 1022.51 766.65 1017.42 768.32 1014 771.95 1011.96 777.82 1011.3 786.15 1011.45 796.77 1012.08 809.47 1013.25 823.87 1014.32 839.4 1015.02 855.37 1015.53 870.98 1015.27 885.45 1014.11 897.95 1010.89 911.24 997.93 915.88 988.33 907.73 980.89 899.61 972.64 890.39 963.7 881.21 954.22 873.53 944.23 868.11 933.84 865.85 923.12 867.57 912.16 873.3 901.07 882.89 889.82 895.88 878.55 911.19 867.32 927.59 856.05 943.72 844.89 958.05 833.88 969.22 822.89 976.33 812.07 978.55 801.46 975.69 790.88 968.4 780.51 957.28 770.34 943.64 760.21 929.42 750.28 916.01 740.54 905.07 730.82 898.26 721.27 896.2 711.91 899.26 702.54 907.32 693.44 919.13 684.59 933.2 675.73 948.13 667.09 961.82 658.67 972.66 650.21 979.66 641.95 981.69 633.87 978.54 625.73 970.66 617.74 958.66 609.88 943.77 601.93 927.52 594.09 911.34 586.33 896.71 578.44 884.94 570.59 876.82 562.77 872.81 554.78 873.14 546.78 877.2 538.75 884.19 530.52 893.42 522.24 903.37 513.89 912.81 505.34 920.94 496.72 926.44 488.03 928.63 479.18 927.36 470.28 922.27 461.36 913.64 452.36 902.04 443.4 888.07 434.51 872.58 425.65 856.47 416.94 840.61 408.43 825.81 400.07 812.72 391.98 801.85 384.19 793.44 376.63 787.72 369.4 784.48 362.52 783.41 355.86 784.39 349.52 786.67 343.48 789.68 334.71 794.81 318.03 800.11 309.85 798.15 304.27 794.63 298.68 789.21 293.08 781.99 287.33 773.23 281.61 763 275.98 751.58 270.33 739.2 264.87 726.16 259.69 712.73 254.65 699.08 250.01 685.5 245.78 672.21 241.8 659.25 238.24 646.85 235.07 635.07 232.03 623.91 229.22 613.44 226.55 603.64 223.72 594.49 220.8 585.93 217.72 577.87 214.21 570.33 210.43 563.16 206.38 556.24 201.94 549.67 197.37 543.22 192.82 536.78 188.24 530.53 184 524.2 180.29 517.7 177.05 511.29 174.61 504.64 173.05 497.74 172.15 490.85 172.09 483.66 172.76 476.17 173.75 468.67 175.07 460.84 176.51 452.71 177.6 444.55 178.36 436.09 178.64 427.32 178.13 418.54 177.03 409.48 175.43 400.13 173.26 390.78 170.97 381.28 168.83 371.63 166.83 362 165.47 352.25 164.92 342.38 165.06 332.55 166.19 322.62 168.28 312.63 171 302.68 174.45 292.69 178.4 282.68 182.47 272.75 186.65 262.84 190.73 252.99 194.4 243.26 197.74 233.64 200.7 224.16 203.1 214.86 205.2 205.77 207.08 196.94 208.68 188.34 210.33 180.06 212.18 172.12 214.14 164.46 216.53 157.19 219.42 150.32 222.65 143.72 226.42 137.52 230.71 131.7 235.26 126.07 240.22 120.75 245.47 115.71 250.78 110.68 256.22 105.8 261.74 100.98 267.11 95.95 272.47 90.83 277.8 85.55 282.96 79.85 288.13 73.85 293.34 67.52 298.49 60.67 303.79 53.46 309.28 45.9 314.87 37.93 320.75 29.73 326.93 21.39 333.29 12.92 339.99 4.54 346.99 -3.59 354.15 -11.49 361.57 -18.91 369.2 -25.74 376.88 -32.04 384.68 -37.63 392.54 -42.48 400.31 -46.78 408.07 -50.44 415.78 -53.54 423.28 -56.4 430.68 -58.97 437.99 -61.39 445.05 -64.03 452 -66.83 458.88 -69.88 465.52 -73.49 472.12 -77.47 478.7 -81.83 485.11 -86.69 491.55 -91.77 498.06 -96.94 504.48 -102.22 511.01 -107.27 517.68 -111.92 524.32 -116.2 531.13 -119.84 538.12 -122.75 545.12 -125.1 552.32 -126.75 559.71 -127.76 567.15 -128.47 574.77 -128.82 582.56 -128.98 590.4 -129.34 598.41 -129.82 606.55 -130.52 614.73 -131.75 623.04 -133.29 631.45 -135.09 639.89 -137.28 648.41 -139.5 657.01 -141.58 665.61 -143.55 674.27 -145.03 682.99 -145.87" stroke-dasharray="0 4" transform="rotate(28.28, 711, 400)" opacity="0.97"></path><path d="M694.61 -118.37C703.11 -118.75 711.75 -118.31 720.51 -117.08 729.29 -115.35 738.22 -113.04 747.32 -110.34 756.45 -107.61 765.78 -104.85 775.31 -102.21 784.91 -100.03 794.73 -98.19 804.79 -96.73 814.95 -95.83 825.36 -95.21 836.03 -94.76 846.78 -94.54 857.79 -94.17 869.03 -93.49 880.32 -92.55 891.78 -91 903.38 -88.75 914.92 -85.93 926.49 -82.34 937.99 -78.04 949.25 -73.27 960.28 -67.97 970.95 -62.31 981.13 -56.58 990.75 -50.79 999.64 -45.1 1007.79 -39.79 1015.01 -34.8 1021.17 -30.19 1031.99 -19.73 1033.66 -7.13 1030.43 -2.55 1026.99 2.94 1022.82 17.77 1024.07 27.23 1027.15 34.26 1032.05 41.85 1038.96 49.89 1048.03 58.23 1059.15 66.84 1072.2 75.63 1086.92 84.44 1102.96 93.23 1119.87 101.93 1137.03 110.4 1153.91 118.66 1169.83 126.67 1184.14 134.32 1196.25 141.69 1205.6 148.78 1211.91 155.5 1214.81 161.98 1214.19 168.27 1210.47 174.24 1203.72 180.1 1194.47 185.9 1183.8 191.48 1172.22 197.1 1160.69 202.78 1150.56 208.37 1142.41 214.09 1137.13 219.98 1135.6 225.85 1138.02 231.94 1144.54 238.25 1155.12 244.58 1169.15 251.16 1185.86 257.97 1204.28 264.83 1223.16 271.93 1241.18 279.23 1257.13 286.59 1269.77 294.14 1278.11 301.88 1281.69 309.65 1280.04 317.58 1273.27 325.66 1262.22 333.75 1247.52 341.96 1230.4 350.29 1212.68 358.62 1195.55 367.06 1180.55 375.59 1169.31 384.12 1162.61 392.64 1160.92 401.17 1164.5 409.7 1172.72 418.25 1184.73 426.82 1199.72 435.43 1216.03 444.09 1232.23 452.83 1247.25 461.64 1259.48 470.56 1267.93 479.64 1272.17 488.83 1271.54 498.21 1266.1 507.81 1256.37 517.58 1242.84 527.6 1226.47 537.9 1208.36 548.37 1189.61 559.12 1171.37 570.15 1154.69 581.31 1140.43 592.7 1129.26 604.27 1121.66 615.84 1117.73 627.46 1117.32 639.04 1120.33 650.38 1126.03 661.47 1133.69 672.15 1142.9 682.3 1152.5 691.79 1161.68 700.46 1177.82 719.37 1166.59 732.42 1150.47 732.01 1137.11 731.15 1122.35 729.93 1106.68 728.65 1090.5 727.97 1074.34 727.91 1058.63 728.83 1043.64 731.27 1029.73 735.25 1017.12 740.99 1005.92 748.7 996.24 758.26 988.05 769.57 981.38 782.39 976.05 796.35 971.88 810.99 968.9 825.71 966.73 839.96 965.13 853.07 959.87 875.37 947.65 851.15 940.86 841.19 935.67 837.49 929.81 836.65 923.32 839.1 916.46 845.17 909.07 854.49 901.22 866.62 893.09 880.84 884.6 896.07 875.81 911.15 866.85 924.98 857.67 936.33 848.35 944.23 838.93 948.19 829.43 947.74 819.88 942.95 810.29 934.62 800.7 923.38 791.13 910.42 781.55 897.42 772.01 885.51 762.53 876.03 753.06 870.31 743.64 868.8 734.29 871.75 724.94 879.11 715.75 889.78 706.73 902.56 697.68 916.34 688.78 929.34 680.01 940.18 671.2 947.98 662.5 951.63 653.88 950.77 645.2 945.63 636.59 936.45 628.02 924.09 619.37 909.72 610.74 894.47 602.11 879.6 593.38 866.35 584.63 855.61 575.86 848.05 566.98 844.18 558.06 843.88 549.1 846.81 540.05 852.65 530.98 860.35 521.88 868.93 512.73 877.74 503.6 885.5 494.5 891.38 485.42 895 476.43 895.6 467.56 892.99 458.79 887.37 450.21 878.77 441.85 867.67 433.69 854.67 425.79 840.36 418.21 825.47 410.86 810.66 403.85 796.58 397.17 783.75 390.73 772.6 384.61 763.39 378.79 756.25 370.42 749.76 354.76 747.74 347.23 750.16 339.59 753.5 324.07 756.9 316.16 755.35 310.75 752.75 305.4 748.69 300.16 743.21 294.91 736.52 289.85 728.56 285.04 719.5 280.35 709.53 275.98 698.77 271.93 687.42 268.03 675.61 264.43 663.53 261.1 651.37 257.81 639.13 254.67 627.04 251.62 615.19 248.42 603.55 245.18 592.27 241.86 581.38 238.25 570.81 234.54 560.65 230.73 550.88 226.72 541.43 222.76 532.33 218.94 523.52 215.19 514.97 211.8 506.65 208.9 498.48 206.37 490.51 204.46 482.61 203.22 474.77 202.4 467.03 202.19 459.27 202.49 451.45 202.95 443.69 203.64 435.83 204.42 427.85 204.92 419.89 205.22 411.79 205.23 403.53 204.68 395.28 203.78 386.87 202.59 378.31 201.01 369.74 199.39 361.13 197.92 352.48 196.53 343.84 195.6 335.19 195.28 326.54 195.42 317.92 196.29 309.33 197.89 300.8 199.96 292.32 202.63 283.94 205.77 275.67 209.06 267.5 212.55 259.48 216.12 251.65 219.46 243.95 222.69 236.46 225.74 229.22 228.42 222.13 230.92 215.3 233.29 208.77 235.41 202.37 237.55 196.26 239.8 190.44 242.06 184.71 244.58 179.23 247.43 173.98 250.47 168.73 253.9 163.63 257.72 158.64 261.73 153.5 266.07 148.37 270.69 143.18 275.37 137.7 280.22 132.06 285.18 126.19 290.05 119.91 294.96 113.35 299.89 106.46 304.68 99.15 309.48 91.53 314.32 83.63 319.08 75.42 323.95 67.05 328.97 58.6 334.04 50.09 339.35 41.7 344.92 33.54 350.66 25.64 356.72 18.18 363.11 11.26 369.71 4.85 376.63 -0.89 383.85 -5.94 391.24 -10.45 398.86 -14.3 406.68 -17.56 414.56 -20.5 422.56 -23.06 430.63 -25.36 438.64 -27.75 446.65 -30.18 454.63 -32.76 462.45 -35.8 470.19 -39.2 477.85 -42.99 485.3 -47.37 492.65 -52.12 499.92 -57.16 506.96 -62.55 513.94 -67.99 520.87 -73.32 527.6 -78.52 534.32 -83.3 541.05 -87.5 547.63 -91.2 554.27 -94.15 560.97 -96.33 567.57 -97.96 574.28 -98.94 581.11 -99.36 587.87 -99.6 594.77 -99.61 601.84 -99.55 608.86 -99.82 616.06 -100.32 623.43 -101.14 630.77 -102.55 638.31 -104.32 646.03 -106.38 653.73 -108.83 661.63 -111.3 669.72 -113.6 677.81 -115.77 686.1 -117.41 694.6 -118.37" stroke-dasharray="5 5" transform="rotate(32.32, 711, 400)" opacity="0.78"></path><path d="M719.93 -90.86C728.48 -91.31 737.16 -90.91 745.99 -89.7 754.83 -87.93 763.83 -85.56 772.98 -82.73 782.14 -79.82 791.46 -76.82 800.91 -73.9 810.37 -71.41 819.96 -69.25 829.66 -67.49 839.33 -66.34 849.08 -65.56 858.85 -65.07 868.56 -64.96 878.23 -64.87 887.81 -64.63 897.23 -64.3 906.47 -63.5 915.45 -62.12 924.14 -60.24 932.45 -57.61 940.3 -54.23 947.72 -50.27 954.56 -45.63 960.71 -40.43 966.33 -34.91 971.17 -29.08 975.18 -23.1 979.9 -14.37 984.45 1.33 984.59 7.89 982.96 17.5 983.77 29.46 987.69 33.92 992.13 37.28 998 41.16 1005.43 45.62 1014.51 50.53 1025.17 56.07 1037.32 62.2 1050.75 68.81 1065.26 75.95 1080.53 83.55 1096.11 91.5 1111.62 99.78 1126.59 108.3 1140.49 116.96 1152.9 125.72 1163.32 134.5 1171.47 143.22 1176.98 151.85 1179.63 160.35 1179.58 168.64 1176.73 176.75 1171.28 184.66 1163.96 192.29 1154.97 199.73 1144.95 206.98 1134.97 213.96 1125.47 220.78 1117.22 227.49 1111.23 233.97 1107.84 240.38 1107.54 246.77 1110.79 252.97 1117.5 259.21 1127.53 265.5 1140.54 271.67 1155.84 277.95 1172.63 284.35 1189.99 290.68 1206.86 297.16 1222.15 303.82 1234.98 310.43 1244.42 317.23 1249.79 324.23 1250.91 331.21 1247.52 338.39 1239.83 345.79 1228.69 353.17 1214.65 360.77 1198.77 368.58 1182.58 376.4 1167.04 384.43 1153.38 392.71 1142.98 400.98 1136.46 409.39 1134.23 417.95 1136.56 426.51 1142.99 435.24 1152.91 444.11 1165.74 453.01 1180.16 462.08 1195.01 471.31 1209.45 480.58 1222.07 490.01 1231.92 499.61 1238.56 509.24 1241.2 519.02 1239.67 528.94 1234.21 538.85 1224.96 548.87 1212.5 558.94 1197.64 568.94 1181.14 578.93 1163.95 588.85 1146.99 598.57 1131.08 608.11 1116.96 617.37 1105.26 626.29 1096.36 634.79 1090.45 642.76 1087.71 650.23 1087.85 657.03 1090.52 663.09 1095.56 668.52 1102.16 673.11 1109.69 676.83 1117.87 679.93 1125.76 682.2 1132.76 683.67 1142.35 685.22 1126.84 687.48 1111.81 690.75 1099.74 694.5 1086.53 699.5 1072.54 705.89 1058.05 713.81 1043.45 723.16 1029.05 733.87 1015.01 745.75 1001.66 758.55 989.16 771.96 977.58 785.54 967.06 798.89 957.62 811.52 949.27 822.99 941.96 832.85 935.61 840.68 927.91 847.91 916.76 846.65 912.53 839.26 910.15 832.82 907.76 825.8 905.25 818.92 901.51 811.09 892.25 809.51 886.49 817.85 882.33 827.2 877.69 838.82 872.58 852.09 867.3 866.23 861.56 880.27 855.39 893.22 849.07 904.25 842.37 912.46 835.32 917.21 828.15 918.37 820.68 915.71 812.93 909.48 805.12 900.55 797.07 889.52 788.82 877.42 780.54 865.72 772.08 855.27 763.46 847.15 754.84 842.44 746.07 841.4 737.18 844.25 728.29 850.93 719.39 860.52 710.47 872.06 701.56 884.68 692.64 896.89 683.71 907.52 674.77 915.82 665.82 920.74 656.86 921.84 647.88 919.18 638.88 912.74 629.86 903.05 620.83 891 611.77 877.36 602.69 863.19 593.61 849.55 584.51 837.31 575.4 827.21 566.32 819.93 557.25 815.65 548.21 814.41 539.23 816.21 530.31 820.43 521.48 826.45 512.77 833.85 504.19 841.55 495.77 848.79 487.52 855.14 479.48 859.68 471.68 861.96 464.1 861.89 456.79 859.09 449.78 853.63 443 845.8 436.54 835.82 430.39 824.12 424.45 811.22 418.8 797.61 413.44 783.85 408.2 770.4 403.19 757.72 398.38 746.17 393.58 736.02 388.89 727.45 384.3 720.51 377.25 713.45 362.86 708.13 355.42 708.44 347.66 709.9 331.98 711.56 324.26 710.51 319.15 708.85 314.24 706.16 309.56 702.42 304.98 697.83 300.66 692.21 296.63 685.64 292.71 678.31 289.04 670.17 285.59 661.38 282.18 652.03 278.91 642.21 275.74 632.06 272.49 621.6 269.27 610.99 266.05 600.31 262.68 589.54 259.32 578.82 255.99 568.24 252.57 557.68 249.27 547.32 246.16 537.16 243.13 527.11 240.41 517.28 238.09 507.67 236 498.18 234.38 488.9 233.22 479.81 232.32 470.81 231.84 461.98 231.71 453.31 231.65 444.69 231.78 436.19 232 427.79 232.02 419.43 231.97 411.14 231.78 402.93 231.25 394.73 230.57 386.58 229.76 378.49 228.7 370.39 227.69 362.45 226.83 354.65 226 346.85 225.53 339.21 225.49 331.72 225.72 324.25 226.49 316.94 227.78 309.81 229.37 302.7 231.43 295.79 233.88 289.07 236.45 282.38 239.26 275.9 242.21 269.62 245.07 263.36 247.94 257.31 250.79 251.46 253.43 245.6 256.03 239.92 258.6 234.4 261.01 228.81 263.48 223.34 266.04 217.95 268.59 212.43 271.34 206.93 274.34 201.4 277.44 195.65 280.83 189.81 284.51 183.83 288.31 177.54 292.37 171.05 296.66 164.34 300.98 157.28 305.46 149.97 310.04 142.42 314.54 134.55 319.08 126.48 323.65 118.24 328.06 109.82 332.47 101.34 336.9 92.88 341.2 84.47 345.56 76.24 350.01 68.28 354.43 60.62 359.02 53.4 363.8 46.7 368.7 40.47 373.86 34.87 379.32 29.91 384.98 25.45 390.97 21.61 397.29 18.34 403.85 15.39 410.72 12.84 417.88 10.59 425.24 8.32 432.85 6.09 440.67 3.79 448.59 1.1 456.66 -1.85 464.84 -5.18 473.03 -9.09 481.26 -13.4 489.51 -18.1 497.68 -23.28 505.83 -28.68 513.93 -34.2 521.91 -39.82 529.82 -45.26 537.66 -50.37 545.35 -55.13 552.98 -59.3 560.56 -62.77 567.99 -65.64 575.39 -67.75 582.77 -69.12 590.02 -70.02 597.28 -70.36 604.58 -70.29 611.76 -70.18 619.02 -69.99 626.35 -69.87 633.6 -70.19 640.97 -70.83 648.46 -71.87 655.9 -73.53 663.48 -75.56 671.24 -77.89 678.96 -80.57 686.87 -83.25 694.98 -85.74 703.07 -88.05 711.38 -89.81 719.92 -90.86" stroke-dasharray="7 5" transform="rotate(36.36, 711, 400)" opacity="0.46"></path><path d="M737.78 -63.36C746.16 -63.87 754.54 -63.53 762.92 -62.36 771.31 -60.61 779.68 -58.22 788.03 -55.34 796.37 -52.3 804.66 -49.12 812.89 -45.96 821.07 -43.16 829.15 -40.65 837.09 -38.53 844.95 -37.02 852.62 -35.94 860.05 -35.23 867.34 -35.02 874.34 -34.98 880.99 -34.97 890.45 -34.95 906.74 -32.48 913.39 -29.38 919.04 -24.68 927.14 -11.08 929.72 -2.68 931.16 3.2 932.24 9.24 933.04 15.28 934.42 23.91 938.17 39.07 941.4 45.34 944.59 48.87 948.57 52.07 953.5 55.01 959.57 57.59 966.76 60.08 975.13 62.58 984.68 64.99 995.38 67.61 1007.15 70.51 1019.79 73.61 1033.18 77.14 1047.08 81.14 1061.15 85.52 1075.14 90.43 1088.71 95.87 1101.48 101.74 1113.12 108.11 1123.27 114.94 1131.7 122.14 1138.1 129.71 1142.24 137.59 1144.21 145.71 1143.82 154.04 1141.13 162.51 1136.63 171.07 1130.34 179.68 1122.64 188.3 1114.36 196.88 1105.7 205.4 1097.28 213.84 1089.97 222.16 1084.07 230.36 1080.11 238.44 1078.73 246.37 1080.04 254.18 1084.22 261.88 1091.4 269.43 1101.28 276.88 1113.53 284.27 1127.7 291.53 1143.1 298.75 1158.96 305.95 1174.51 313.05 1188.87 320.17 1201.23 327.33 1210.96 334.41 1217.41 341.57 1220.15 348.82 1219.21 356.02 1214.46 363.34 1206.18 370.79 1195.18 378.21 1181.93 385.78 1167.32 393.52 1152.63 401.24 1138.59 409.14 1126.22 417.21 1116.63 425.28 1110.33 433.45 1107.68 441.69 1108.94 449.94 1113.77 458.26 1121.75 466.66 1132.49 475.04 1144.95 483.49 1158.23 491.96 1171.69 500.41 1184.12 508.86 1194.68 517.28 1202.95 525.64 1208.1 533.92 1209.83 542.09 1208.18 550.13 1203.04 558 1194.68 565.63 1183.65 573.07 1170.39 580.19 1155.61 586.95 1140.02 593.43 1124.32 599.47 1109.21 605.01 1095.3 610.21 1083.12 614.87 1073.04 618.96 1060.59 628.06 1071.15 636.43 1080.61 638.29 1090.36 640.7 1104.31 648.27 1106.71 654.33 1106.13 659.7 1103.65 666.06 1099.32 673.5 1093.34 682.06 1085.71 691.65 1076.64 702.21 1066.35 713.57 1055.04 725.55 1042.98 737.91 1030.34 750.33 1017.4 762.52 1004.41 774.14 991.45 784.86 978.79 794.34 966.58 802.26 954.84 808.47 943.76 812.72 933.38 814.89 923.68 815.18 914.72 813.52 906.48 810.12 898.93 805.58 892.02 800.05 885.68 794.02 877.25 785.79 862.8 777.24 856.31 779.53 852.26 784.41 848.18 791.67 844.02 801.11 839.97 812.4 835.74 824.91 831.29 837.98 826.86 850.93 822.17 862.91 817.18 873.18 809.5 883.76 792.49 884.84 783.17 875.46 776.81 866.33 770.16 855.78 763.21 844.71 756.23 834.33 748.98 825.3 741.47 818.45 733.94 814.64 726.17 814.03 718.17 816.75 710.16 822.78 702.03 831.36 693.79 841.71 685.56 853.17 677.24 864.51 668.83 874.74 660.45 883.27 652 889.12 643.5 891.81 635.04 891.31 626.53 887.41 618.01 880.41 609.54 870.89 601.06 859.38 592.61 846.67 584.23 833.62 575.9 820.99 567.63 809.5 559.47 799.85 551.41 792.43 543.48 787.49 535.69 785.28 528.05 785.54 520.6 787.99 513.32 792.44 506.26 798.16 499.44 804.53 492.8 811.23 486.42 817.38 480.31 822.45 471.54 827.18 455.56 823.29 448.26 814.38 443.54 805.94 439 795.9 434.6 784.65 430.17 772.55 425.82 759.99 421.53 747.38 417.1 735.04 412.66 723.29 408.19 712.41 403.52 702.58 398.78 693.94 393.96 686.53 388.93 680.45 383.83 675.58 378.67 671.79 370.68 668.2 354.73 665.21 346.99 664.68 339.51 664.24 325.89 661.02 319.84 657.66 314.23 652.88 304.27 638.92 299.74 629.89 296.73 623.21 293.81 616 290.97 608.36 288.04 600.37 285.18 592.05 282.4 583.48 279.57 574.7 276.86 565.76 274.32 556.73 271.82 547.59 269.55 538.43 267.56 529.29 265.68 520.11 264.13 511 262.89 501.99 261.78 492.97 260.95 484.07 260.39 475.31 259.86 466.56 259.5 457.94 259.27 449.47 258.92 441.02 258.62 432.7 258.33 424.54 257.85 416.38 257.38 408.36 256.92 400.49 256.34 392.61 255.86 384.96 255.55 377.53 255.25 370.09 255.21 362.87 255.49 355.85 255.91 348.81 256.68 341.97 257.82 335.31 259.11 328.62 260.73 322.1 262.64 315.74 264.62 309.33 266.8 303.05 269.15 296.89 271.44 290.64 273.84 284.48 276.29 278.38 278.65 272.16 281.06 265.95 283.54 259.74 285.96 253.35 288.48 246.91 291.15 240.38 293.84 233.64 296.73 226.78 299.84 219.77 303.05 212.52 306.5 205.11 310.21 197.53 314 189.72 318.02 181.76 322.24 173.65 326.48 165.39 330.85 157.06 335.32 148.68 339.71 140.28 344.12 131.95 348.55 123.75 352.8 115.71 357.04 107.92 361.24 100.47 365.26 93.35 369.28 86.68 373.3 80.51 377.21 74.79 381.18 69.64 385.25 65.06 391.44 59.12 404.99 50.16 412.51 46.74 417.82 44.53 423.45 42.39 429.4 40.2 435.57 37.69 442.06 34.95 448.84 31.89 455.84 28.3 463.1 24.32 470.59 19.94 478.24 15.04 486.07 9.83 494.06 4.38 502.13 -1.3 510.31 -7 518.56 -12.57 526.84 -17.98 535.14 -22.98 543.46 -27.45 551.76 -31.42 560.04 -34.69 568.31 -37.21 576.51 -39.14 584.69 -40.36 592.83 -40.94 600.91 -41.18 608.96 -41.02 616.99 -40.62 624.96 -40.32 632.92 -40.1 640.88 -40.08 648.79 -40.58 656.72 -41.47 664.68 -42.8 672.61 -44.74 680.59 -47.05 688.63 -49.62 696.65 -52.51 704.75 -55.35 712.93 -57.98 721.11 -60.38 729.39 -62.23 737.77 -63.36" stroke-dasharray="0 1" transform="rotate(40.400000000000006, 711, 400)" opacity="0.74"></path><path d="M733.22 -35.86C740.99 -36.42 748.61 -36.15 756.06 -35.05 763.5 -33.37 770.75 -31.03 777.81 -28.15 784.85 -25.07 791.66 -21.77 798.24 -18.42 804.76 -15.34 811.02 -12.5 817 -9.99 825.68 -7.31 841.26 -4.86 848.09 -4.73 859.72 -4.78 873.62 0 877.32 4.33 881.06 10.18 888.91 25.4 893.52 34.22 897.19 40.26 901.3 46.35 905.94 52.38 911.3 58.16 917.35 63.7 924.15 68.95 931.79 73.75 940.24 78.18 949.53 82.26 959.59 85.86 970.41 89.16 981.89 92.21 993.86 94.9 1006.24 97.48 1018.85 100.01 1031.42 102.41 1043.8 104.92 1055.72 107.61 1066.93 110.39 1077.2 113.48 1086.28 116.92 1097.05 122.67 1107.48 136.82 1106.72 145.23 1104.04 151.31 1099.77 157.77 1094.13 164.58 1087.73 171.67 1080.65 179.03 1073.3 186.63 1066.42 194.42 1060.16 202.37 1054.99 210.44 1051.54 218.61 1049.92 226.85 1050.44 235.12 1053.41 243.41 1058.76 251.7 1066.44 259.96 1076.36 268.2 1088.12 276.39 1101.31 284.52 1115.46 292.61 1129.92 300.64 1144.06 308.6 1157.27 316.52 1168.86 324.39 1178.23 332.2 1185.04 339.97 1188.81 347.71 1189.3 355.41 1186.71 363.09 1180.97 370.75 1172.4 378.4 1161.75 386.04 1149.38 393.68 1136.05 401.31 1122.81 408.95 1110.21 416.59 1099.05 424.24 1090.27 431.89 1084.24 439.44 1081.26 446.91 1081.61 454.36 1085.04 461.7 1091.24 468.93 1100 476.13 1110.51 483.18 1122.08 490.07 1134.24 496.9 1146 503.54 1156.64 509.96 1165.8 516.3 1172.68 522.38 1176.9 528.18 1178.42 533.87 1176.92 539.24 1172.48 544.27 1165.42 549.16 1155.92 553.7 1144.43 557.87 1131.48 561.92 1117.56 565.6 1103.25 568.94 1089.08 572.2 1075.57 575.17 1063.16 577.88 1052.24 580.63 1043.07 583.22 1035.83 585.74 1029.12 589.87 1028.03 599.56 1032.4 605.67 1036.82 610.56 1041.75 616.06 1046.84 622.24 1052.05 629.22 1056.78 636.94 1060.74 645.43 1064 654.65 1066.06 664.54 1066.81 675.02 1066.37 685.91 1064.47 697.11 1061.12 708.42 1056.52 719.6 1050.58 730.46 1043.44 740.74 1035.28 750.21 1026.17 758.65 1016.29 765.82 1005.79 771.64 994.83 775.89 983.59 778.47 972.12 779.55 960.64 779.02 949.27 776.99 938.02 773.92 927.05 769.83 916.44 765.06 906.15 760.25 896.3 755.55 886.9 751.4 877.92 748.43 869.38 746.77 861.29 746.76 853.59 748.78 846.27 752.79 839.29 758.81 832.64 766.81 826.25 776.46 820.07 787.39 814.12 799.18 808.31 811.26 802.58 823.01 797 833.89 791.44 843.27 785.84 850.61 780.34 855.63 774.75 857.95 769.06 857.43 763.4 854.36 757.6 848.77 751.65 841.07 745.7 832.1 739.58 822.27 733.28 812.32 726.97 803.28 720.47 795.6 713.78 789.91 707.09 786.91 700.21 786.66 693.15 789.24 686.09 794.67 678.94 802.3 671.72 811.51 664.51 821.83 657.25 832.23 649.94 841.92 642.67 850.43 635.37 856.88 628.07 860.8 620.82 862.1 613.59 860.46 606.41 855.98 599.29 849.06 592.23 839.97 585.27 829.26 578.39 817.61 571.63 805.59 565 793.84 558.48 783.01 552.11 773.54 545.93 765.82 536.92 758.47 520.07 757.38 512.25 762.44 507.21 767.44 502.36 772.91 497.71 778.38 490.89 785.88 477.99 793.41 471.77 792 467.56 788.79 463.38 783.79 459.2 777.14 454.85 769.09 450.46 759.79 446 749.53 441.33 738.57 436.57 727.18 431.71 715.67 426.63 704.25 421.46 693.18 416.21 682.66 410.78 672.81 405.32 663.78 399.85 655.63 394.29 648.43 388.78 642.15 383.38 636.73 375.39 630.34 360.58 621.72 353.91 618.8 342.46 614.18 328.33 605.25 324.43 600.79 320.64 595.51 313.42 582.2 309.95 574.25 307.58 568.58 305.3 562.55 303.14 556.19 300.93 549.66 298.88 542.86 297 535.84 295.14 528.7 293.49 521.39 292.05 513.96 290.66 506.45 289.49 498.85 288.53 491.21 287.59 483.52 286.84 475.81 286.26 468.09 285.67 460.37 285.2 452.65 284.87 444.96 284.48 437.27 284.22 429.61 284.09 421.99 283.92 414.37 283.91 406.87 284.08 399.49 284.25 392.11 284.64 384.84 285.25 377.67 285.9 370.48 286.79 363.38 287.9 356.35 289.05 349.28 290.4 342.26 291.94 335.28 293.48 328.23 295.16 321.19 296.97 314.15 298.73 307.01 300.6 299.85 302.57 292.63 304.49 285.3 306.52 277.9 308.68 270.42 310.84 262.82 313.17 255.13 315.68 247.34 318.26 239.44 321.07 231.45 324.12 223.39 327.3 215.27 330.73 207.1 334.42 198.91 338.22 190.74 342.25 182.62 346.48 174.59 350.76 166.68 355.19 158.94 359.73 151.43 364.21 144.16 368.74 137.21 373.27 130.63 377.65 124.4 382 118.59 386.29 113.27 392.38 106.1 403.98 94.7 409.57 90.32 415 86.56 426.17 80.03 432.11 76.76 438.37 72.89 452.33 63.12 460.12 56.98 465.61 52.26 471.38 47.21 477.43 41.89 483.69 36.25 490.21 30.52 496.96 24.79 503.9 19.08 511.05 13.62 518.38 8.53 525.85 3.81 533.47 -0.32 541.2 -3.81 549.04 -6.73 556.95 -8.93 564.93 -10.42 572.98 -11.41 581.06 -11.82 589.15 -11.74 597.28 -11.49 605.41 -11.02 613.52 -10.48 621.65 -10.19 629.76 -10.1 637.85 -10.32 645.93 -11.11 653.99 -12.34 662.01 -14 670.04 -16.24 678.03 -18.81 685.98 -21.61 693.93 -24.65 701.85 -27.61 709.72 -30.32 717.6 -32.78 725.43 -34.67 733.2 -35.85" stroke-dasharray="5 10" transform="rotate(44.44, 711, 400)" opacity="0.32"></path><path d="M710.06 -8.35C716.93 -8.97 723.6 -8.77 730.04 -7.78 736.48 -6.2 742.68 -3.95 748.66 -1.15 754.62 1.9 760.33 5.24 765.81 8.7 773.86 13.56 788.71 21.36 795.54 23.89 802.16 25.15 814.54 25.52 820.43 25.22 826.43 24.99 838.72 26.7 845.31 29.17 850.08 31.52 855.1 34.54 860.44 38.19 866.21 42.35 872.39 47.06 879.04 52.26 886.2 57.76 893.88 63.58 902.1 69.61 910.84 75.68 920.11 81.76 929.89 87.79 940.07 93.59 950.66 99.18 961.57 104.52 972.63 109.47 983.8 114.1 994.94 118.43 1005.83 122.32 1016.4 125.93 1026.45 129.29 1035.81 132.3 1044.32 135.15 1051.81 137.9 1065.33 145.63 1066.53 158.65 1060.82 163.99 1055.95 167.86 1050.4 172.06 1044.44 176.61 1038.66 181.39 1033.11 186.52 1028.14 191.96 1024.3 197.64 1021.67 203.61 1020.51 209.84 1021.21 216.27 1023.75 222.92 1028.21 229.77 1034.69 236.76 1042.98 243.9 1052.91 251.16 1064.24 258.52 1076.6 265.96 1089.55 273.45 1102.66 281 1115.41 288.58 1127.27 296.15 1137.83 303.77 1146.58 311.36 1153.11 318.92 1157.26 326.5 1158.71 334.03 1157.38 341.49 1153.54 348.97 1147.16 356.39 1138.57 363.72 1128.43 371.06 1117.03 378.31 1104.97 385.47 1093.12 392.64 1081.89 399.71 1071.89 406.66 1063.88 413.62 1058.16 420.37 1054.97 426.92 1054.57 433.47 1056.77 439.79 1061.39 445.9 1068.31 451.99 1076.91 457.85 1086.7 463.48 1097.35 469.08 1108.06 474.44 1118.25 479.56 1127.63 484.66 1135.48 489.52 1141.4 494.14 1146.05 500.95 1139.59 513.57 1128.93 519.51 1119.37 523.51 1108.33 527.43 1096.23 531.33 1083.49 535.4 1070.52 539.53 1057.73 543.78 1045.5 548.32 1034.14 553.07 1023.94 558.1 1015.13 563.54 1007.84 569.34 1002.12 575.57 998.09 582.29 995.61 589.49 994.55 597.19 994.94 605.37 996.43 614.04 998.77 623.15 1001.98 632.63 1005.57 642.45 1009.29 652.5 1013.18 662.63 1016.75 672.78 1019.8 682.79 1022.43 692.48 1024.22 701.73 1025.08 710.35 1024.63 721.7 1016.99 737.62 1009.9 741.61 1004.02 742.69 997.3 742.51 989.84 741.14 981.76 738.96 973.14 735.93 964.08 732.27 954.67 728.51 945 724.68 935.2 721.1 925.25 718.31 915.31 716.36 905.45 715.55 895.63 716.26 885.97 718.48 876.53 722.32 867.22 727.9 858.17 735.03 849.38 743.56 840.78 753.3 832.44 763.85 824.37 774.84 816.47 785.86 808.82 796.41 801.38 806.01 794.1 814.3 786.99 820.83 780.05 825.27 773.22 827.56 766.51 827.48 759.9 825.03 753.36 820.61 746.89 814.3 740.46 806.51 734.07 797.99 727.7 789.05 721.33 780.3 714.99 772.57 708.63 766.15 702.25 761.54 695.88 759.25 689.49 759.3 683.06 761.74 676.64 766.59 670.27 773.33 663.95 781.46 657.63 790.66 651.38 800.09 645.2 809.12 639.02 817.39 632.93 824.13 626.93 828.91 620.94 831.63 615.07 831.9 609.3 829.7 603.57 825.27 597.97 818.68 592.5 810.3 587.07 800.61 581.78 790.01 576.65 779 571.55 768.13 566.61 757.82 561.82 748.48 557.06 740.5 552.44 734.08 547.98 729.35 541.34 725.92 528.58 729.25 522.39 734.6 516.11 741.37 503.43 753.52 496.92 757.13 490.07 757.92 475.66 750.45 468.05 742.27 462.75 735.25 457.35 727.19 451.88 718.28 446.26 708.71 440.61 698.66 434.94 688.35 429.2 677.92 423.51 667.57 417.91 657.46 412.34 647.67 406.92 638.35 401.69 629.57 396.58 621.38 391.72 613.81 387.12 606.88 382.72 600.6 378.61 594.92 374.81 589.77 369.55 583.14 360.7 572.35 356.98 567.75 350.45 559.41 341.37 545.92 338.39 540.62 335.26 534.93 329.07 521.93 326.11 514.62 323.2 506.92 318.16 490.11 316.12 481.08 314.88 474.95 313.85 468.63 313.03 462.13 312.28 455.61 311.74 448.92 311.42 442.09 311.15 435.26 311.1 428.28 311.25 421.18 311.45 414.07 311.84 406.92 312.42 399.74 313.02 392.56 313.79 385.33 314.73 378.08 315.65 370.81 316.71 363.51 317.9 356.16 319.04 348.8 320.29 341.38 321.62 333.92 322.87 326.44 324.21 318.9 325.61 311.31 326.93 303.7 328.34 296.03 329.83 288.32 331.27 280.6 332.83 272.84 334.54 265.06 336.27 257.3 338.18 249.54 340.31 241.81 342.54 234.14 345.02 226.53 347.77 219.02 350.67 211.63 353.86 204.39 357.33 197.33 360.96 190.47 364.86 183.85 369 177.51 373.24 171.43 377.68 165.69 382.27 160.3 386.87 155.21 391.57 150.51 396.32 146.21 403.29 140.38 416.84 130.92 423.29 127.11 429.33 123.61 440.68 117 446.07 113.5 451.22 109.37 461.56 99.2 466.92 92.98 470.54 88.27 474.33 83.26 478.29 77.98 482.34 72.4 486.61 66.69 491.1 60.93 495.72 55.14 500.58 49.49 505.67 44.11 510.92 38.99 516.4 34.33 522.1 30.2 527.95 26.57 534 23.59 540.24 21.28 546.62 19.51 553.16 18.37 559.84 17.83 566.63 17.64 573.54 17.85 580.54 18.37 587.63 18.88 594.78 19.43 601.98 19.9 609.25 20 616.54 19.8 623.83 19.22 631.17 18.06 638.5 16.46 645.79 14.45 653.12 11.92 660.4 9.11 667.62 6.15 674.86 3 682.03 -0.01 689.11 -2.76 696.19 -5.23 703.18 -7.13 710.05 -8.35" stroke-dasharray="5 2" transform="rotate(48.48, 711, 400)" opacity="0.27"></path><path d="M687.69 19.14C693.72 18.49 699.64 18.6 705.43 19.47 711.21 20.92 716.88 23.02 722.42 25.68 727.96 28.65 733.39 31.95 738.71 35.43 744.05 38.85 749.3 42.2 754.48 45.38 762.28 49.38 777.86 54.73 785.75 56.03 793.9 56.33 811.05 55.76 820.21 55.48 826.62 55.45 833.29 55.77 840.24 56.52 847.46 57.62 855 59.27 862.87 61.5 871.02 64.21 879.49 67.51 888.28 71.38 897.29 75.69 906.57 80.48 916.08 85.7 925.68 91.18 935.4 96.94 945.16 102.9 954.82 108.91 964.35 114.96 973.64 120.99 982.57 126.86 991.06 132.59 998.98 138.14 1006.25 143.38 1012.76 148.38 1018.37 153.12 1028.16 165.15 1028.37 180.05 1023.88 184.34 1017.98 188.41 1004.44 196.87 998.13 201.44 993.59 206.27 991.43 217.2 994.81 223.36 999.18 227.67 1005.07 232.23 1012.43 237.01 1021.18 241.93 1031.1 247.06 1041.93 252.4 1053.43 257.84 1065.23 263.47 1076.96 269.24 1088.28 275.11 1098.78 281.1 1108.08 287.2 1115.91 293.36 1121.93 299.61 1125.87 305.91 1127.72 312.26 1127.28 318.64 1124.54 325.04 1119.83 331.47 1113.14 337.89 1104.75 344.3 1095.27 350.72 1084.89 357.11 1074.09 363.45 1063.58 369.8 1053.63 376.09 1044.72 382.31 1037.48 388.54 1032.1 394.62 1028.79 400.55 1027.78 406.48 1028.95 412.27 1032.17 417.91 1037.41 423.56 1044.22 429.08 1052.22 434.46 1061.25 439.86 1070.64 445.16 1079.94 450.35 1088.98 455.59 1097.09 460.75 1103.93 465.87 1111.26 473.66 1113.52 489.46 1108.19 497.63 1102.25 503.29 1094.64 509.1 1085.62 515.09 1075.52 521.31 1064.58 527.75 1053.12 534.46 1041.46 541.42 1029.89 548.67 1018.69 556.21 1008.1 564.02 998.33 572.11 989.56 580.47 981.93 589.02 975.5 597.79 970.29 606.72 966.38 615.7 963.66 624.72 962.02 633.7 961.51 642.52 961.85 651.12 962.89 659.39 964.65 667.23 966.79 674.55 969.12 681.22 972.76 696.16 951.49 685.24 941.83 683.84 934.84 684.32 927.48 685.94 919.84 688.79 911.94 693.05 903.86 698.59 895.66 705.36 887.33 713.3 878.96 722.16 870.6 731.7 862.2 741.69 853.86 751.77 845.62 761.57 837.39 770.81 829.29 779.09 821.34 786.08 813.43 791.6 805.67 795.34 798.08 797.15 790.53 797.12 783.14 795.14 775.91 791.31 768.73 786.06 761.69 779.49 754.79 771.96 747.93 764.13 741.19 756.21 734.58 748.69 727.99 742.21 721.51 736.97 715.14 733.31 708.78 731.65 702.51 731.95 696.35 734.24 690.18 738.55 684.17 744.45 678.32 751.57 672.46 759.68 666.76 768.12 661.21 776.39 655.65 784.23 650.23 791 644.96 796.31 637.11 800.95 622.09 797.3 614.9 789.26 610.11 781.85 605.45 773.22 600.91 763.73 596.32 753.82 591.83 743.79 587.43 734.04 582.96 724.93 578.56 716.7 574.22 709.59 567.58 701.63 554.2 694.87 547.37 695.66 540.28 699.04 525.55 708.98 517.86 714.07 509.83 718.25 493.16 721.41 484.58 719.73 478.74 717.26 472.9 713.66 467.08 709.01 461.23 703.45 455.46 696.98 449.78 689.73 444.17 681.84 438.72 673.42 433.45 664.6 428.33 655.48 423.45 646.21 418.84 636.9 414.43 627.62 410.31 618.49 406.5 609.6 402.9 600.96 399.61 592.66 396.63 584.73 393.82 577.17 391.28 570.02 389 563.26 386.83 556.9 384.84 550.91 383.03 545.24 380.38 537.41 375.36 523.31 372.84 516.8 370.08 510.64 364.21 498.46 361.11 492.27 357.83 486.05 351.41 472.86 348.42 465.83 345.62 458.59 341.16 443.1 339.61 434.83 338.79 429.24 338.25 423.45 338 417.45 337.87 411.45 338.01 405.26 338.42 398.88 338.92 392.49 339.65 386 340.58 379.41 341.54 372.82 342.65 366.15 343.89 359.39 345.09 352.65 346.36 345.83 347.71 338.96 348.94 332.11 350.2 325.2 351.48 318.27 352.62 311.36 353.77 304.44 354.93 297.52 355.95 290.65 357.01 283.8 358.11 276.99 359.14 270.27 360.25 263.61 361.48 257.05 362.72 250.6 364.12 244.28 365.73 238.12 367.43 232.1 369.39 226.28 371.61 220.67 375.35 212.66 384.63 198.25 390.15 191.93 396.2 186.19 409.58 176.41 416.75 172.27 424.01 168.43 438.6 161.4 445.76 157.94 452.59 154.14 465.51 145.41 471.58 140.24 475.37 136.32 479.09 132.12 482.75 127.62 486.22 122.76 489.67 117.64 493.11 112.31 496.42 106.73 499.76 101.03 503.15 95.3 506.48 89.52 509.9 83.86 513.43 78.41 518.78 70.73 530.29 58.13 536.5 53.56 542.99 50.35 556.97 47.51 564.45 47.58 572.21 48.22 588.55 49.89 597.07 50.29 602.85 50.03 608.71 49.42 614.65 48.41 620.63 46.83 626.66 44.86 632.73 42.52 638.83 39.73 644.95 36.74 651.07 33.66 657.21 30.46 663.34 27.43 669.45 24.7 675.56 22.26 681.64 20.38 687.68 19.14" stroke-dasharray="1 4" transform="rotate(52.52, 711, 400)" opacity="0.98"></path><path d="M684.81 46.64C693.12 45.97 709.83 48.97 718.26 52.39 729.56 58.24 741.07 65.11 752.86 72.08 764.87 77.91 777.33 82.54 790.34 85.71 803.76 86.94 817.88 87.13 832.74 86.86 848.03 86.19 864.01 86.41 880.51 88.06 897.04 91.07 913.61 96.18 929.75 103.33 944.92 112.02 958.74 122.26 970.56 133.57 980.17 145.28 986.91 157.17 990.39 168.81 991.24 179.71 988.99 189.88 984.07 199.28 978.17 207.57 971.42 215.18 965.09 222.31 961.26 228.64 960.35 234.88 963.47 241.24 971.59 247.29 984.35 253.79 1001.25 260.85 1021.17 267.94 1042.29 275.7 1062.41 284.13 1079.54 292.71 1091.49 301.92 1096.62 311.69 1094.87 321.56 1085.93 331.91 1071.03 342.65 1062.31 348.03 1052.98 353.49 1043.41 359.04 1034.17 364.58 1025.43 370.2 1017.56 375.89 1011.05 381.58 1006.04 387.27 1002.7 392.97 1001.23 398.67 1001.54 404.38 1003.56 410.11 1012.65 421.6 1026.31 433.23 1042.13 445.07 1058.38 457.12 1071.7 469.54 1080.14 482.44 1083.13 495.71 1079.45 509.59 1069.55 524.09 1054.75 538.94 1036.18 554.33 1015.7 570.04 995.03 585.62 975.71 600.98 958.94 615.63 945.59 629.13 935.9 641.01 929.7 650.68 932.1 657.55 923.77 657.28 912.2 671.1 902.65 685.5 891.7 702.55 879.71 720.7 867.03 738.17 853.79 752.8 840.26 762.66 826.5 766.94 812.75 764.78 799.19 756.62 785.6 744.78 772.31 730.83 759.39 717.5 752.95 712.21 746.6 708.04 740.34 705.23 734.1 704.11 727.94 704.6 721.88 706.73 715.83 710.54 709.93 715.66 704.19 721.83 698.44 728.91 692.83 736.35 687.37 743.79 676.39 757.81 665.9 767.73 655.84 771.72 645.61 769.55 635.69 760.82 626 746.89 616.01 729.89 606.09 711.75 596.17 694.68 585.81 680.61 575.31 670.5 564.62 664.72 553.46 663.51 542.09 665.59 530.55 669.66 518.74 675.15 506.93 679.93 495.29 682.83 483.81 683.76 472.84 681.41 462.6 675.73 453.01 667.27 444.44 655.95 437.04 642.47 430.47 627.44 425.04 611.44 420.7 595.12 416.81 578.75 413.61 562.87 410.9 547.75 407.9 533.33 404.92 519.82 401.8 507.16 397.91 495.23 393.76 483.91 389.43 473.02 384.54 462.58 379.82 452.28 375.53 441.96 371.4 431.81 368.17 421.45 366.05 410.78 365.01 402.75 364.79 386.22 365.58 377.71 366.34 372.01 367.34 366.27 368.55 360.52 369.81 354.77 371.2 349.01 372.71 343.25 375.53 331.78 378.46 320.37 381.32 309.16 383.46 298.12 385.44 287.42 387.32 277.21 388.69 267.31 390.34 258.05 392.47 249.55 394.83 241.44 398.15 234.15 402.58 227.71 407.79 221.5 414.25 215.96 421.86 210.94 430.17 205.67 439.34 200.48 449.13 195.11 459.01 188.8 469.05 181.83 479.05 174.02 488.54 164.93 497.73 154.96 506.56 144.28 514.64 132.95 522.4 121.61 529.93 110.79 536.86 100.74 543.78 92.21 550.81 85.65 557.52 80.85 564.57 78.21 572.02 77.55 579.41 77.83 587.31 78.99 595.74 80.31 604.21 80.47 613.22 79.51 622.71 77.08 632.26 72.64 642.25 67.04 652.62 60.92 657.81 57.74 663.09 54.75 668.46 52.08 673.83 49.72 679.28 47.87 684.81 46.65" stroke-dasharray="9 4" transform="rotate(56.56, 711, 400)" opacity="0.15"></path><path d="M703.84 74.15C714.48 73.26 725.51 74.97 736.93 79.01 748.4 84.44 760.33 91.06 772.69 98.1 785.16 104.46 798.08 109.99 811.42 114.33 824.81 116.89 838.51 118.23 852.36 118.69 866.01 118.16 879.51 117.73 892.53 117.92 904.84 118.7 916.15 120.99 926.07 124.98 934.6 130.37 941.21 137.53 945.6 146.23 948.29 155.99 948.71 166.73 946.98 178.08 944.23 189.57 940.19 201.07 935.53 212.33 931.83 223.03 929.14 233.22 928.38 242.88 930.83 251.77 936.49 260.2 945.71 268.3 958.59 275.79 974.42 283.17 992.32 290.59 1011.11 297.66 1029.24 304.97 1045.01 312.63 1057.2 320.14 1064.34 328.11 1065.56 336.59 1061.32 345.01 1051.57 353.99 1037.46 363.55 1021.52 373.07 1005.08 383.19 990.39 393.91 980.09 404.64 975.01 415.74 975.53 427.21 981.82 438.72 992.26 450.63 1005.18 462.91 1019.5 475.26 1032.55 487.98 1042.65 501 1049.22 514 1050.73 527.17 1047 540.32 1038.73 553.15 1026.16 565.63 1010.43 577.43 992.79 588.39 974.37 598.17 956.35 606.41 939.65 613.28 925 618.26 912.8 621.2 894.17 620.73 887.4 618.75 886.57 625.66 885.55 634.42 883.3 646.08 879.71 660.22 875.46 676.13 869.82 692.53 862.93 707.98 855.43 721.24 846.87 730.8 837.46 735.57 827.67 735.6 817.27 730.59 806.44 721.31 795.45 709.99 784.19 697.77 772.79 686.76 761.36 679.5 749.85 676.76 738.31 679.23 726.78 687.13 715.48 698.52 704.41 711.39 693.31 724.3 682.36 734.47 671.55 740.3 660.61 741.43 649.71 736.97 638.81 727.54 627.72 714.47 616.55 698.9 605.28 682.53 593.82 667.01 582.25 653.49 570.63 642.82 558.94 635.72 547.3 631.9 535.83 630.87 524.57 632.53 513.72 635.42 503.44 638.58 493.71 641.87 484.8 643.79 476.87 643.8 469.69 642.2 463.57 638.14 458.52 631.74 454.08 623.53 450.51 613.4 447.68 601.79 444.91 589.11 442.46 575.63 440.12 561.78 437.2 547.65 434.05 533.6 430.57 519.86 426.25 506.26 421.62 493.12 416.8 480.47 411.53 468.06 406.48 456.09 401.93 444.52 397.7 433.11 394.45 421.98 392.41 411.11 391.19 400.29 391.32 389.64 392.75 379.15 394.79 368.67 397.7 358.59 401.18 348.92 404.45 339.27 407.77 330.08 410.94 321.39 413.32 312.75 415.39 304.65 417.18 297.15 418.29 289.69 419.42 282.8 420.78 276.47 422.11 270.06 424.15 264.07 427.08 258.39 430.64 252.35 435.36 246.34 441.26 240.19 447.99 233.29 455.79 225.95 464.5 218.02 473.72 209.13 483.51 199.57 493.65 189.4 503.76 178.57 513.9 167.5 523.91 156.52 533.49 145.81 542.81 135.91 551.86 127.27 560.33 119.91 568.57 114.33 576.66 110.7 584.25 108.5 591.83 107.92 599.51 108.63 606.85 109.53 614.43 110.61 622.32 111.28 630.03 110.51 638.15 108.49 646.71 105.11 655.19 100.03 664.18 94.1 673.69 87.94 683.16 81.84 693.2 77 703.83 74.15" stroke-dasharray="2 4" transform="rotate(60.599999999999994, 711, 400)" opacity="0.36"></path><path d="M728.86 101.65C739.12 100.68 749.63 102.05 760.36 105.56 771.1 110.44 782.03 116.62 793.09 123.47 804.11 130.06 815.15 136.23 826.08 141.58 836.8 145.46 847.21 148.21 857.11 149.92 866.51 150.34 875.12 150.3 882.69 150.19 892.18 150.13 902.65 156.14 903.43 163.35 902.86 169.77 901.25 177.55 898.95 186.44 897.09 196.1 895.48 206.46 894.7 217.26 895.81 228.24 898.75 239.29 903.98 250.23 912 260.93 922.56 271.35 935.5 281.48 950.45 291.19 966.64 300.63 983.15 309.84 999.02 318.69 1013.08 327.44 1024.15 336.17 1031.68 344.66 1034.72 353.27 1032.93 362.07 1027.04 370.75 1017.1 379.72 1004.1 389.04 990.1 398.31 975.93 407.99 963.23 418.1 954.01 428.2 948.84 438.51 948.04 448.98 951.94 459.44 959.42 470.02 969.4 480.63 981.28 491.15 993.04 501.58 1003.36 511.77 1011.81 521.7 1016.82 531.18 1017.93 540.02 1015.44 548.33 1008.99 555.74 999.1 562.05 986.59 567.63 972.01 571.96 956.26 574.96 940.11 577.31 924.28 578.52 909.38 578.77 895.82 579.02 883.91 578.97 873.73 579.08 865.4 580.38 858.66 582.77 853.23 586.73 849.22 592.92 845.96 601.19 843.08 611.58 840.86 623.98 838.49 637.81 835.7 652.36 833 666.85 829.57 680.23 825.32 691.42 820.88 699.81 815.55 704.48 809.34 704.97 802.92 701.89 795.68 695.2 787.7 685.77 779.58 675.54 770.82 665.27 761.49 656.48 752.1 651.04 742.22 649.31 731.89 651.73 721.55 658.51 711.04 668.15 700.4 679.21 689.77 690.79 679.01 700.68 668.14 707.57 657.27 711.12 646.29 710.24 635.23 705.04 624.19 696.3 613.1 684.46 602.01 670.66 591.04 656.14 580.17 641.84 569.5 628.72 559.1 617.62 549.06 608.83 539.51 602.46 530.44 598.75 522.03 597.03 514.41 596.79 504.33 598.8 489.46 602.13 484.46 600.81 481.59 598.48 479.19 594.48 477.12 588.92 474.71 582.26 472.27 574.25 469.65 565.16 466.27 555.33 462.51 544.77 458.35 533.76 453.43 522.39 448.26 510.86 443 499.34 437.47 487.72 432.29 476.26 427.72 465.05 423.61 453.85 420.55 442.94 418.73 432.37 417.8 421.82 418.21 411.6 419.91 401.74 422.27 391.88 425.48 382.57 429.27 373.82 432.9 365.03 436.6 356.76 440.13 348.96 442.9 341.09 445.3 333.63 447.31 326.54 448.53 319.27 449.55 312.25 450.54 305.37 451.22 298.15 452.3 290.91 453.95 283.54 455.94 275.63 458.86 267.41 462.79 258.81 467.44 249.59 473.19 239.93 479.95 229.89 487.42 219.41 495.75 208.76 504.77 198.12 514.17 187.62 524 177.62 534.07 168.42 544.16 160.09 554.28 153.05 564.34 147.53 574.15 143.27 583.81 140.61 593.3 139.47 602.45 139.13 611.47 139.74 620.39 140.89 629 141.62 637.61 141.99 646.28 141.61 654.74 139.71 663.36 136.63 672.22 132.4 680.95 126.85 690 120.77 699.42 114.73 708.79 108.92 718.59 104.37 728.86 101.65" stroke-dasharray="3 0" transform="rotate(64.64, 711, 400)" opacity="0.45"></path><path d="M738.92 129.16C748.37 128.13 757.68 129.15 766.79 132.09 775.88 136.33 784.72 141.89 793.24 148.29 801.64 154.78 809.62 161.22 817.04 167.25 824.23 172.24 830.72 176.34 836.43 179.5 852.95 183.57 857.52 192.89 858.42 200.45 860.33 206.71 863.28 213.99 867.6 222.11 873.75 230.85 881.62 240.17 891.26 249.91 902.66 259.92 915.49 270.11 929.34 280.35 943.75 290.62 958.04 300.81 971.43 310.88 983.35 320.84 992.96 330.66 999.57 340.32 1003.08 349.88 1002.91 359.32 999.03 368.66 992.27 377.94 982.67 387.17 971.03 396.37 958.95 405.55 946.91 414.73 936.06 423.9 927.93 433.08 922.83 442.01 921.06 450.67 922.99 459.3 927.86 467.59 935.01 475.48 944.21 483.25 954 490.51 963.4 497.17 975.57 506.49 984.35 521 979.4 526.07 972.6 529.01 963.33 531.31 952.12 533.08 939.55 535.08 926.03 536.92 912.13 538.9 898.24 541.73 884.77 545.2 872.04 549.63 860.2 555.51 849.42 562.72 839.72 571.36 831.13 581.5 823.52 592.88 816.73 605.2 810.82 618.09 805.42 630.96 800.32 643.15 795.74 654.14 791.16 663.17 786.41 669.62 781.87 673.4 776.97 674.01 771.6 671.4 766.27 666.43 760.39 659.16 753.94 650.37 747.45 641.63 740.37 633.39 732.71 626.66 725.02 622.81 716.77 621.91 707.98 624.22 699.19 629.98 690.11 638 680.8 647.32 671.52 657.4 662.06 666.58 652.49 673.83 643 678.91 633.45 680.73 623.92 679.1 614.54 674.48 605.27 666.79 596.2 656.67 587.39 644.98 578.88 632.27 570.79 619.34 563.06 606.94 555.85 595.52 549.26 585.5 543.1 577.25 537.61 570.71 532.84 565.77 522.06 560.25 510.8 557.54 507.46 555.06 504.64 552.7 501.55 549.29 498.12 544.86 493.93 539.9 489.37 534 484.47 527.29 479 520.16 473.43 512.39 467.94 504.13 462.4 495.63 457.35 486.8 453.01 477.77 449.24 468.65 446.55 459.43 445.07 450.19 444.48 440.93 445.16 431.71 447.08 422.56 449.64 413.4 453.02 404.53 456.97 395.92 460.86 387.29 464.85 378.87 468.72 370.63 471.94 362.29 474.8 354.05 477.25 345.85 478.88 337.46 480.18 329.01 481.26 320.45 481.81 311.61 482.44 302.58 483.33 293.33 484.21 283.79 485.68 274.04 487.85 264.11 490.48 254.04 494 243.94 498.44 233.96 503.52 224.17 509.51 214.78 516.32 206 523.71 197.87 531.79 190.69 540.41 184.64 549.38 179.55 558.73 175.75 568.31 173.26 578.01 171.62 587.81 171.06 597.64 171.39 607.42 171.86 617.15 172.62 626.81 173.34 636.36 173.23 645.84 172.46 655.24 170.82 664.54 167.78 673.82 163.77 683.08 158.91 692.28 153.11 701.53 147.09 710.82 141.31 720.1 135.91 729.47 131.71 738.92 129.16" stroke-dasharray="10 9" transform="rotate(68.68, 711, 400)" opacity="0.80"></path><path d="M725.63 156.66C733.77 155.6 741.5 156.29 748.76 158.64 755.99 162.17 762.73 166.96 768.93 172.69 775.05 178.74 780.6 185.06 785.53 191.33 792.46 199.57 803.11 211.36 806.99 214.74 813.83 216.99 826.55 220.7 833.55 224.06 839.64 227.04 846.78 230.9 855.06 235.58 864.53 240.83 875.03 246.84 886.42 253.51 898.47 260.64 910.87 268.28 923.18 276.31 935.05 284.64 945.96 293.22 955.39 301.94 963.1 310.82 968.52 319.74 971.31 328.62 971.7 337.57 969.29 346.44 964.2 355.17 957.25 363.92 948.41 372.52 938.27 380.91 928.08 389.32 918.03 397.51 908.89 405.45 901.82 413.38 896.95 420.85 894.52 427.85 894.91 434.82 897.59 441.29 902.19 447.24 908.73 453.16 916.16 458.55 923.85 463.42 931.75 468.27 938.74 472.65 944.32 476.59 949.74 482.47 947 493.56 938.95 499.48 931.37 504.11 922.29 509.18 912.07 514.87 901.05 521.46 889.5 528.85 877.73 537.12 865.91 546.31 854.32 556.29 843.13 566.93 832.35 578.03 822.16 589.31 812.58 600.4 803.56 610.98 795.11 620.61 787.19 628.8 779.74 635.42 772.67 639.95 765.87 642.13 759.4 642.26 753.03 640.04 746.7 635.64 740.52 629.97 734.25 623.03 727.82 615.46 721.45 608.44 714.85 602.17 707.99 597.3 701.14 594.79 694.01 594.55 686.6 596.72 679.19 601.53 671.7 608.08 664.17 615.73 656.66 624.26 649.16 632.39 641.73 639.4 634.37 645.19 627.14 648.74 620.11 649.79 613.22 648.61 606.59 644.81 600.31 638.68 594.22 630.76 588.54 621.22 583.31 610.61 578.31 599.48 573.79 588.18 569.79 577.17 565.97 566.82 562.63 557.33 559.75 548.85 555.66 538.5 548.65 524.48 545.22 519.96 541.04 516.79 530.68 510.74 524.23 506.97 519.22 504.27 513.95 500.97 508.53 497.04 502.78 492.96 497.12 488.24 491.72 482.91 486.48 477.45 481.84 471.43 477.98 464.91 474.74 458.31 472.54 451.27 471.49 443.85 471.26 436.39 472.19 428.6 474.24 420.48 476.9 412.37 480.32 404.15 484.3 395.83 488.3 387.51 492.45 379.09 496.57 370.56 500.19 362.01 503.53 353.32 506.51 344.52 508.74 335.67 510.61 326.68 512.15 317.59 513.07 308.47 513.84 299.29 514.59 290.09 515.06 280.98 515.77 271.96 516.84 263.15 518.01 254.62 519.77 246.47 522.17 238.85 524.95 231.75 528.48 225.37 532.75 219.85 537.5 215.02 542.97 211.15 549.09 208.29 555.65 206.07 562.76 204.77 570.32 204.3 578.21 204.1 586.43 204.39 594.89 204.96 603.55 205.16 612.34 205.19 621.2 204.81 630.16 203.45 639.12 201.38 648.03 198.51 656.99 194.52 665.87 189.83 674.63 184.62 683.42 178.83 692.09 173.07 700.6 167.72 709.12 162.81 717.48 159.02 725.63 156.66" stroke-dasharray="11 7" transform="rotate(72.72, 711, 400)" opacity="0.46"></path><path d="M700.09 184.16C706.79 183.09 713.11 183.47 719.03 185.25 724.93 188.03 730.44 191.97 735.54 196.83 740.64 202.16 745.36 207.96 749.73 213.98 754.14 219.8 758.26 225.44 762.15 230.74 768.14 237.39 780.32 246.86 787.03 249.86 792.08 251.12 797.55 252.19 803.52 253.22 810.15 253.96 817.4 254.89 825.3 256.13 833.88 257.38 843.07 259.1 852.8 261.34 862.94 263.8 873.36 266.84 883.83 270.45 894.15 274.34 904.06 278.79 913.24 283.72 921.52 288.92 928.53 294.54 933.96 300.51 937.86 306.67 939.84 313.1 939.77 319.71 938.02 326.45 934.31 333.3 928.79 340.2 922.2 347.16 914.42 354.11 905.88 361.01 897.49 367.93 889.28 374.75 881.73 381.45 875.69 388.14 871.18 394.54 868.39 400.63 867.64 406.73 868.58 412.55 871.03 418.1 875.11 423.69 880.14 429.07 885.72 434.27 891.93 439.6 897.94 444.84 903.39 450.07 908.43 455.53 912.32 461.1 914.86 466.87 916.34 473 916.24 479.46 914.58 486.3 911.71 493.62 907.39 501.39 901.79 509.63 895.22 518.3 887.66 527.38 879.34 536.77 870.47 546.34 861.17 555.96 851.62 565.43 841.91 574.56 832.19 583.13 822.61 590.83 813.11 597.59 803.85 603.05 794.9 606.99 786.14 609.55 777.69 610.4 769.57 609.48 761.64 607.29 753.99 603.61 746.6 598.67 739.34 593.27 732.28 587.34 725.38 581.32 718.55 576.1 711.84 571.66 705.22 568.4 698.62 566.98 692.09 567.23 685.63 569.21 679.16 573.16 672.91 578.39 666.88 584.5 660.85 591.45 655.06 598.33 649.53 604.64 641.41 612.6 626.74 618.45 620.28 615.54 616.13 611.42 612.33 605.65 608.88 598.51 605.44 590.39 602.31 581.42 599.49 571.95 596.58 562.28 593.89 552.6 591.39 543.16 588.66 534.12 586 525.59 583.36 517.67 580.34 510.43 577.23 503.82 573.95 497.8 570.19 492.45 566.2 487.56 561.96 483.02 557.23 478.97 552.27 475.09 547.11 471.26 541.6 467.71 536.02 464.05 530.48 460.2 524.88 456.46 519.54 452.43 514.61 448.04 509.98 443.69 506.01 438.94 502.82 433.77 500.25 428.6 498.63 423 498.03 416.98 498.16 410.94 499.29 404.49 501.41 397.63 504.06 390.76 507.4 383.67 511.26 376.38 515.2 369.11 519.36 361.66 523.58 354.09 527.46 346.55 531.17 338.91 534.63 331.23 537.5 323.63 540.05 316.04 542.28 308.53 543.89 301.17 545.26 293.97 546.45 287.02 547.57 277.16 549.82 260.11 551.48 253.3 557.19 244.33 571.9 238.54 578.99 238.5 584.17 238.37 589.79 238.27 595.76 238.04 601.97 237.19 608.48 235.94 615.19 234.18 622.08 231.54 629.11 228.29 636.22 224.46 643.44 219.84 650.69 214.82 657.89 209.58 665.15 204.07 672.34 198.77 679.39 193.97 686.47 189.64 693.38 186.29 700.09 184.16" stroke-dasharray="0 4" transform="rotate(76.76, 711, 400)" opacity="0.46"></path><path d="M683.67 211.67C694.7 210.45 705.23 213.78 715.3 220.92 725.52 230.05 735.63 240.84 745.9 251.98 756.86 261.87 768.62 270.58 781.45 277.87 795.51 282.93 810.95 287.02 827.5 290.7 844.61 293.29 861.73 296.51 877.6 300.77 891.4 305.07 901.63 310.84 906.92 318.04 907.77 325.54 903.02 334.33 893.18 344.16 881.24 354.11 867.58 364.87 854.56 376.25 845.74 387.64 841.35 399.14 841.52 410.76 846.7 422.58 854.32 434.86 862.55 447.75 871.28 461.21 877.45 475.59 880.06 490.79 880.02 506.39 875.78 522.31 867.94 537.69 857.74 551.84 845.11 563.74 831.07 572.09 816.19 577.05 800.96 577.37 786.04 573.03 771.13 566.38 756.84 557.45 743.4 548.23 730.08 542.18 717.54 539.65 705.88 541.71 694.22 549.28 683.87 559.44 674.79 569.89 665.6 579.88 657.55 585.95 650.57 587.03 643.26 583.9 636.71 575.67 630.68 563.56 623.84 549.11 616.99 533.11 609.84 516.9 601.37 501.17 592.27 486.47 582.57 473.04 571.83 460.87 561.01 449.69 550.73 439.14 540.97 429.31 533.04 419.45 527.76 409.28 524.66 399.26 524.9 388.57 528.57 377.17 533.99 365.77 541.37 354.22 549.69 342.82 557.27 331.61 564.4 320.85 570.67 310.99 574.98 301.7 578.45 293.74 581.37 287.48 583.98 280.15 592.25 273.81 599.66 272.33 605.56 269.71 612.94 265.96 621.53 260.64 630.55 252.77 640.49 243.57 651 233.89 661.67 224.04 672.65 216.14 683.67 211.67" stroke-dasharray="10 2" transform="rotate(80.80000000000001, 711, 400)" opacity="0.38"></path><path d="M690.12 239.17C699.46 237.84 709.24 239.99 719.42 245.19 729.73 252.2 740.64 261.08 752.14 270.96 763.96 280.7 776.52 290.28 789.66 299.25 802.99 306.9 816.6 313.76 829.94 319.94 842.59 324.92 854.02 329.7 863.33 334.6 870.52 338.91 874.55 343.81 874.85 349.51 872.47 355.04 866.58 361.57 857.69 369.17 848.06 376.72 837.52 385.37 827.4 395.14 820.06 404.9 815.4 415.37 813.62 426.42 815.32 437.52 819.03 449.23 823.79 461.36 829.93 473.46 835.31 485.76 839.14 497.83 842.16 509.32 842.71 519.89 840.74 528.84 837.33 536.22 831.61 541.13 824.05 543.08 815.51 543.01 805.75 540.08 795.3 534.68 784.49 528.86 773.42 522.35 762.46 516.35 751.45 513.03 740.71 512.15 730.41 514.21 720.11 519.98 710.68 527.49 702.07 535.48 693.32 543.89 685.2 550.31 677.56 553.85 669.54 555.11 661.72 552.75 653.94 547.12 645.5 539.23 636.83 528.99 627.88 517.25 618.22 504.67 608.32 491.62 598.38 478.71 588.27 465.93 578.66 453.64 570.09 441.99 562.4 430.65 556.55 419.82 553.03 409.5 551.27 399.3 552.16 389.41 555.74 379.87 560.68 370.33 567.3 361.56 574.91 353.65 582.25 345.79 589.61 338.9 596.59 333.12 604.81 325.2 616.62 314.78 621.3 311.39 623.78 308.53 626.83 305.55 630.63 302.07 634.28 296.98 638.92 290.9 644.58 283.83 650.27 275.31 656.97 266.36 664.61 257.69 672.25 249.39 680.77 242.91 690.12 239.17" stroke-dasharray="4 7" transform="rotate(84.84, 711, 400)" opacity="0.61"></path><path d="M714.03 266.67C721.96 265.33 730.46 266.48 739.43 269.86 748.43 274.64 757.89 281.11 767.64 288.78 777.36 296.88 787.22 305.49 796.93 314.2 806.3 322.54 815.15 330.64 823.03 338.38 830.02 345.47 835.53 352.28 839.13 358.86 841.34 364.93 841.32 371.03 838.97 377.3 835.37 383.3 829.8 389.7 822.64 396.6 815.43 403.41 807.74 410.85 800.22 418.95 794.41 427.04 790 435.43 787.17 443.95 786.5 452.42 787.12 460.91 788.65 469.14 791.53 477.12 794.48 484.56 797.02 491.12 796.2 502.92 773.79 490.85 762.79 485.8 755.17 484.57 747.1 484.81 738.7 486.7 730.3 490.9 721.99 496.1 713.81 501.68 705.58 507.99 697.38 513.42 689.2 517.44 680.85 520.63 672.39 521.72 663.86 520.7 655.09 518.33 646.2 513.97 637.31 507.99 628.33 501.02 619.51 492.93 611.11 484.15 603.04 474.94 595.76 465.45 589.63 456.01 584.4 446.48 580.71 437.16 578.86 428.25 578.26 419.36 579.59 410.89 582.9 402.99 587.18 395.08 592.79 388.08 599.29 381.95 605.84 375.77 612.73 370.41 619.62 365.8 625.87 361.03 631.89 356.84 637.59 353.1 642.45 348.93 647.09 344.91 651.58 340.86 655.4 336 659.34 330.8 663.53 325.13 667.34 318.51 671.63 311.4 676.52 303.98 681.23 296.03 686.67 288.27 692.9 281.18 699.07 274.66 706.1 269.64 714.03 266.67" stroke-dasharray="10 7" transform="rotate(88.88, 711, 400)" opacity="0.52"></path><path d="M735.4 294.18C747.9 292.75 760.88 297.51 773.27 306.87 785.12 318.35 795.21 332.06 801.88 346.21 806.46 359.98 806.31 373.51 800.97 386.39 794.15 398.84 784.18 411.3 773.06 423.52 765.53 435.74 760.51 446.52 758 455.03 759.43 466.12 740.71 457.78 723.81 459.2 711.64 466 698.13 473.55 684.12 479.68 670.16 485.55 655.79 487.02 642.12 483.95 629.26 478.88 618.2 470.13 610.58 459.24 605.51 447.7 605.11 435.28 610.07 423.07 617.39 410.85 627.92 399.95 639.83 390.21 651.05 379.85 662.37 369.6 673.22 359.12 682.66 347.13 692.28 334.41 702.4 321.92 711.95 309.45 722.9 299.43 735.4 294.18" stroke-dasharray="0 9" transform="rotate(92.92, 711, 400)" opacity="0.64"></path><path d="M736.35 321.68C744.71 320.2 751.97 322.12 757.74 326.75 763.24 332.72 766.81 340.63 768.05 349.51 768.69 358.82 766.86 368.53 762.66 377.91 758.41 387.33 752.6 396.3 745.89 404.23 738.35 415.17 728.58 427.39 724.95 428.81 721.69 429.34 708.78 429.4 698.2 431.7 690.57 435.59 682.04 439.42 673.32 442.54 664.81 446.25 656.43 448.16 649 447.94 639.65 445.95 632.83 431.22 637.23 419.74 642.32 411.63 649.48 403 657.81 394.18 666.26 385.22 675.35 375.85 684.47 366.46 693.28 356.89 702.18 347.45 710.87 338.96 719.4 331.06 728 324.96 736.35 321.68" stroke-dasharray="5 8" transform="rotate(96.96, 711, 400)" opacity="0.76"></path></g></svg>